<?xml version="1.0" encoding="UTF-8"?>
<!DOCTYPE svg PUBLIC "-//W3C//DTD SVG 1.1//EN" "http://www.w3.org/Graphics/SVG/1.1/DTD/svg11.dtd">
<!-- Creator: CorelDRAW -->
<svg xmlns="http://www.w3.org/2000/svg" xml:space="preserve" width="71.5849mm" height="21.2508mm" version="1.1" style="shape-rendering:geometricPrecision; text-rendering:geometricPrecision; image-rendering:optimizeQuality; fill-rule:evenodd; clip-rule:evenodd"
viewBox="0 0 2946.58 874.73"
 xmlns:xlink="http://www.w3.org/1999/xlink"
 xmlns:xodm="http://www.corel.com/coreldraw/odm/2003">
 <defs>
  <style type="text/css">
   <![CDATA[
    .fil1 {fill:#FEFEFE;fill-rule:nonzero}
    .fil0 {fill:#D2D3D5;fill-rule:nonzero}
    .fil2 {fill:url(#id0)}
    .fil3 {fill:url(#id1)}
    .fil4 {fill:url(#id2)}
   ]]>
  </style>
  <linearGradient id="id0" gradientUnits="userSpaceOnUse" x1="1905.66" y1="550.98" x2="2208.75" y2="-196.79">
   <stop offset="0" style="stop-opacity:1; stop-color:#00A6FF"/>
   <stop offset="1" style="stop-opacity:1; stop-color:#6A49F2"/>
  </linearGradient>
  <linearGradient id="id1" gradientUnits="userSpaceOnUse" x1="2444.97" y1="814.8" x2="1641.37" y2="41.17">
   <stop offset="0" style="stop-opacity:1; stop-color:blue"/>
   <stop offset="1" style="stop-opacity:1; stop-color:#6A49F2"/>
  </linearGradient>
  <linearGradient id="id2" gradientUnits="userSpaceOnUse" x1="1702.78" y1="902.58" x2="1882.25" y2="-198.15">
   <stop offset="0" style="stop-opacity:1; stop-color:#0083B3"/>
   <stop offset="1" style="stop-opacity:1; stop-color:#6A49F2"/>
  </linearGradient>
 </defs>
 <g id="Capa_x0020_1">
  <metadata id="CorelCorpID_0Corel-Layer"/>
  <path class="fil0" d="M533.02 831.38c0,-7.4 -2.82,-13.58 -8.4,-18.58 -5.61,-5 -15.49,-9.2 -29.73,-12.59 -17.25,-4.12 -30.68,-10.15 -40.33,-18.13 -9.62,-8.01 -14.46,-18.05 -14.46,-30.15 0,-12.71 5.19,-23.28 15.61,-31.79 10.38,-8.51 23.85,-12.78 40.41,-12.78 17.82,0 31.98,4.89 42.55,14.69 10.53,9.77 15.61,21.1 15.23,34l-0.19 0.69 -21.03 0c0,-9.54 -3.17,-17.25 -9.47,-23.17 -6.29,-5.88 -15.34,-8.81 -27.09,-8.81 -10.95,0 -19.39,2.48 -25.22,7.4 -5.84,4.96 -8.78,11.41 -8.78,19.39 0,7.06 3.17,12.94 9.5,17.67 6.33,4.73 16.64,8.9 30.87,12.44 17.14,4.24 30.19,10.49 39.12,18.77 8.97,8.28 13.44,18.51 13.44,30.72 0,13.13 -5.38,23.66 -16.11,31.63 -10.72,7.98 -24.77,11.95 -42.06,11.95 -16.22,0 -30.6,-4.42 -43.08,-13.28 -12.48,-8.85 -18.55,-20.68 -18.16,-35.42l0.23 -0.69 20.99 0c0,10.42 3.85,18.4 11.53,23.82 7.67,5.45 17.17,8.17 28.5,8.17 11.11,0 19.92,-2.33 26.41,-6.99 6.49,-4.66 9.73,-10.99 9.73,-18.97zm895.85 0c0,-7.4 -2.82,-13.58 -8.4,-18.58 -5.61,-5 -15.49,-9.2 -29.73,-12.59 -17.25,-4.12 -30.68,-10.15 -40.33,-18.13 -9.62,-8.01 -14.46,-18.05 -14.46,-30.15 0,-12.71 5.19,-23.28 15.61,-31.79 10.38,-8.51 23.85,-12.78 40.41,-12.78 17.82,0 31.98,4.89 42.55,14.69 10.53,9.77 15.61,21.1 15.23,34l-0.19 0.69 -21.03 0c0,-9.54 -3.17,-17.25 -9.47,-23.17 -6.29,-5.88 -15.34,-8.81 -27.09,-8.81 -10.95,0 -19.39,2.48 -25.22,7.4 -5.84,4.96 -8.78,11.41 -8.78,19.39 0,7.06 3.17,12.94 9.5,17.67 6.33,4.73 16.64,8.9 30.87,12.44 17.14,4.24 30.19,10.49 39.12,18.77 8.97,8.28 13.44,18.51 13.44,30.72 0,13.13 -5.38,23.66 -16.11,31.63 -10.72,7.98 -24.77,11.95 -42.06,11.95 -16.22,0 -30.6,-4.42 -43.08,-13.28 -12.48,-8.85 -18.55,-20.68 -18.16,-35.42l0.23 -0.69 20.99 0c0,10.42 3.85,18.4 11.53,23.82 7.67,5.45 17.17,8.17 28.5,8.17 11.11,0 19.92,-2.33 26.41,-6.99 6.49,-4.66 9.73,-10.99 9.73,-18.97zm-769.08 23.17c-3.82,6.49 -8.7,11.48 -14.65,14.96 -5.95,3.47 -12.86,5.23 -20.68,5.23 -13.2,0 -23.47,-4.2 -30.87,-12.63 -7.36,-8.4 -11.07,-21.52 -11.07,-39.31l0 -71.25 22.02 0 0 71.48c0,12.9 1.91,21.75 5.73,26.6 3.77,4.84 9.73,7.25 17.78,7.25 7.82,0 14.27,-1.56 19.39,-4.73 5.11,-3.17 8.97,-7.67 11.56,-13.47l0 -87.12 22.02 0 0 120.9 -19.77 0 -1.45 -17.9zm77.13 17.9l-22.02 0 0 -120.9 22.02 0 0 120.9zm0 -151.81l-22.02 0 0 -22.89 22.02 0 0 22.89zm62.97 1.72l0 29.19 22.9 0 0 16.25 -22.9 0 0 73.04c0,5.65 1.14,9.58 3.51,11.91 2.37,2.29 5.46,3.43 9.35,3.43 1.26,0 2.63,-0.15 4.16,-0.46 1.53,-0.3 2.9,-0.65 4.08,-1.11l2.94 15.42c-1.64,1.37 -4.05,2.48 -7.21,3.36 -3.17,0.88 -6.37,1.33 -9.58,1.33 -8.93,0 -16.07,-2.71 -21.33,-8.09 -5.31,-5.42 -7.94,-13.89 -7.94,-25.42l0 -73.42 -19.24 0 0 -16.25 19.24 0 0 -29.19 22.02 0zm100.25 152.38c-16.83,0 -30.23,-5.61 -40.18,-16.83 -9.96,-11.18 -14.92,-25.76 -14.92,-43.62l0 -4.92c0,-17.21 5.11,-31.52 15.38,-42.97 10.23,-11.41 22.36,-17.13 36.41,-17.13 16.29,0 28.62,4.92 36.98,14.73 8.36,9.85 12.52,22.94 12.52,39.31l0 13.74 -78.46 0 -0.35 0.57c0.23,11.56 3.17,21.07 8.82,28.55 5.68,7.44 13.62,11.18 23.81,11.18 7.48,0 14.01,-1.07 19.65,-3.21 5.61,-2.1 10.46,-5.04 14.58,-8.78l8.59 14.35c-4.31,4.31 -10,7.86 -17.09,10.73 -7.06,2.86 -15.65,4.31 -25.72,4.31zm-3.32 -108.08c-7.41,0 -13.7,3.09 -18.93,9.24 -5.19,6.18 -8.4,13.89 -9.62,23.17l0.23 0.57 55.8 0 0 -2.86c0,-8.59 -2.29,-15.72 -6.91,-21.48 -4.66,-5.76 -11.49,-8.63 -20.57,-8.63zm126.08 47.51c0,-19.42 4.16,-35.11 12.48,-47.05 8.32,-11.91 19.96,-17.86 34.92,-17.86 7.1,0 13.36,1.3 18.85,3.93 5.5,2.59 10.15,6.41 14.04,11.37l0 -66.59 22.02 0 0 174.48 -18.01 0 -2.56 -14.88c-3.97,5.69 -8.82,9.96 -14.54,12.86 -5.72,2.86 -12.4,4.31 -20.03,4.31 -14.73,0 -26.29,-5.34 -34.65,-16.03 -8.32,-10.69 -12.52,-24.77 -12.52,-42.17l0 -2.37zm22.02 2.37c0,12.21 2.52,21.98 7.52,29.31 4.96,7.36 12.74,11.03 23.24,11.03 6.56,0 12.06,-1.49 16.56,-4.46 4.46,-2.98 8.09,-7.17 10.95,-12.52l0 -56.44c-2.86,-5 -6.52,-8.97 -11.03,-11.91 -4.5,-2.94 -9.92,-4.42 -16.26,-4.42 -10.61,0 -18.39,4.35 -23.43,13.09 -5.04,8.7 -7.56,20.03 -7.56,33.96l0 2.37zm163.34 58.19c-16.83,0 -30.23,-5.61 -40.18,-16.83 -9.96,-11.18 -14.92,-25.76 -14.92,-43.62l0 -4.92c0,-17.21 5.11,-31.52 15.38,-42.97 10.23,-11.41 22.36,-17.13 36.41,-17.13 16.29,0 28.62,4.92 36.98,14.73 8.36,9.85 12.52,22.94 12.52,39.31l0 13.74 -78.46 0 -0.35 0.57c0.23,11.56 3.17,21.07 8.82,28.55 5.68,7.44 13.62,11.18 23.81,11.18 7.48,0 14.01,-1.07 19.65,-3.21 5.61,-2.1 10.46,-5.04 14.58,-8.78l8.59 14.35c-4.31,4.31 -10,7.86 -17.09,10.73 -7.06,2.86 -15.65,4.31 -25.72,4.31zm-3.32 -108.08c-7.41,0 -13.7,3.09 -18.93,9.24 -5.19,6.18 -8.4,13.89 -9.62,23.17l0.23 0.57 55.8 0 0 -2.86c0,-8.59 -2.29,-15.72 -6.91,-21.48 -4.66,-5.76 -11.49,-8.63 -20.57,-8.63zm268.73 44.15c0,-17.86 4.84,-32.59 14.54,-44.19 9.69,-11.56 22.86,-17.36 39.46,-17.36 16.79,0 30.03,5.76 39.76,17.33 9.73,11.53 14.58,26.29 14.58,44.23l0 2.48c0,18.01 -4.85,32.78 -14.54,44.23 -9.69,11.49 -22.86,17.21 -39.58,17.21 -16.67,0 -29.92,-5.76 -39.61,-17.25 -9.73,-11.53 -14.62,-26.26 -14.62,-44.19l0 -2.48zm22.02 2.4c0,12.78 2.71,23.32 8.13,31.64 5.38,8.32 13.44,12.48 24.08,12.48 10.53,0 18.47,-4.16 23.93,-12.48 5.46,-8.32 8.17,-18.85 8.17,-31.64l0 -2.44c0,-12.63 -2.75,-23.13 -8.2,-31.52 -5.5,-8.4 -13.51,-12.6 -24.12,-12.6 -10.5,0 -18.47,4.2 -23.85,12.6 -5.42,8.39 -8.13,18.89 -8.13,31.52l0 2.44zm137.08 59.23l-22.02 0 0 -174.48 22.02 0 0 174.48zm110.71 -17.9c-3.82,6.49 -8.7,11.48 -14.65,14.96 -5.95,3.47 -12.86,5.23 -20.68,5.23 -13.2,0 -23.47,-4.2 -30.87,-12.63 -7.36,-8.4 -11.07,-21.52 -11.07,-39.31l0 -71.25 22.02 0 0 71.48c0,12.9 1.91,21.75 5.73,26.6 3.77,4.84 9.73,7.25 17.78,7.25 7.82,0 14.27,-1.56 19.39,-4.73 5.11,-3.17 8.97,-7.67 11.56,-13.47l0 -87.12 22.02 0 0 120.9 -19.77 0 -1.45 -17.9zm102.51 2.79c7.29,0 13.74,-2.25 19.27,-6.75 5.57,-4.5 8.36,-10.08 8.36,-16.6l19.77 0 0.23 0.65c0.38,10.46 -4.28,19.73 -13.93,27.9 -9.66,8.13 -20.88,12.21 -33.7,12.21 -17.59,0 -31.02,-5.72 -40.38,-17.21 -9.31,-11.45 -13.97,-25.87 -13.97,-43.24l0 -4.7c0,-17.21 4.69,-31.56 14.04,-43.08 9.35,-11.48 22.78,-17.25 40.3,-17.25 14.16,0 25.72,4.2 34.73,12.55 8.97,8.36 13.32,18.62 13.01,30.8l-0.23 0.65 -19.89 0c0,-7.36 -2.63,-13.66 -7.82,-18.81 -5.23,-5.19 -11.83,-7.79 -19.81,-7.79 -11.56,0 -19.81,4.12 -24.77,12.4 -4.96,8.28 -7.44,18.47 -7.44,30.49l0 4.66c0,12.33 2.48,22.59 7.41,30.8 4.92,8.2 13.16,12.33 24.8,12.33zm96.17 15.11l-22.02 0 0 -120.9 22.02 0 0 120.9zm0 -151.81l-22.02 0 0 -22.89 22.02 0 0 22.89zm28.74 90.18c0,-17.86 4.84,-32.59 14.54,-44.19 9.69,-11.56 22.86,-17.36 39.46,-17.36 16.79,0 30.03,5.76 39.76,17.33 9.73,11.53 14.58,26.29 14.58,44.23l0 2.48c0,18.01 -4.85,32.78 -14.54,44.23 -9.69,11.49 -22.86,17.21 -39.58,17.21 -16.67,0 -29.92,-5.76 -39.61,-17.25 -9.73,-11.53 -14.62,-26.26 -14.62,-44.19l0 -2.48zm22.02 2.4c0,12.78 2.71,23.32 8.13,31.64 5.38,8.32 13.44,12.48 24.08,12.48 10.53,0 18.47,-4.16 23.93,-12.48 5.46,-8.32 8.17,-18.85 8.17,-31.64l0 -2.44c0,-12.63 -2.75,-23.13 -8.2,-31.52 -5.5,-8.4 -13.51,-12.6 -24.12,-12.6 -10.5,0 -18.47,4.2 -23.85,12.6 -5.42,8.39 -8.13,18.89 -8.13,31.52l0 2.44zm132.96 -61.67l1.56 18.01c4.01,-6.41 9.04,-11.41 15.15,-14.96 6.07,-3.55 12.98,-5.34 20.73,-5.34 13.05,0 23.12,3.82 30.3,11.45 7.14,7.63 10.72,19.42 10.72,35.37l0 76.36 -22.02 0 0 -75.9c0,-10.69 -2.1,-18.24 -6.3,-22.71 -4.24,-4.46 -10.65,-6.71 -19.31,-6.71 -6.33,0 -11.95,1.52 -16.83,4.58 -4.89,3.05 -8.78,7.25 -11.68,12.52l0 88.23 -22.02 0 0 -120.9 19.69 0zm160.62 123.19c-16.83,0 -30.23,-5.61 -40.18,-16.83 -9.96,-11.18 -14.92,-25.76 -14.92,-43.62l0 -4.92c0,-17.21 5.11,-31.52 15.38,-42.97 10.23,-11.41 22.36,-17.13 36.41,-17.13 16.29,0 28.62,4.92 36.98,14.73 8.36,9.85 12.52,22.94 12.52,39.31l0 13.74 -78.46 0 -0.35 0.57c0.23,11.56 3.17,21.07 8.82,28.55 5.68,7.44 13.62,11.18 23.81,11.18 7.48,0 14.01,-1.07 19.65,-3.21 5.61,-2.1 10.46,-5.04 14.58,-8.78l8.59 14.35c-4.31,4.31 -10,7.86 -17.09,10.73 -7.06,2.86 -15.65,4.31 -25.72,4.31zm-3.32 -108.08c-7.41,0 -13.7,3.09 -18.93,9.24 -5.19,6.18 -8.4,13.89 -9.62,23.17l0.23 0.57 55.8 0 0 -2.86c0,-8.59 -2.29,-15.72 -6.91,-21.48 -4.66,-5.76 -11.49,-8.63 -20.57,-8.63zm144.55 73.54c0,-4.81 -1.87,-8.78 -5.53,-11.91 -3.7,-3.09 -10.69,-5.8 -20.99,-8.13 -14.65,-3.17 -25.72,-7.52 -33.12,-13.02 -7.44,-5.46 -11.15,-12.94 -11.15,-22.36 0,-9.85 4.2,-18.2 12.52,-25.15 8.36,-6.91 19.24,-10.38 32.67,-10.38 14.08,0 25.27,3.62 33.58,10.84 8.32,7.25 12.29,16.03 11.91,26.41l-0.23 0.65 -20.99 0c0,-5.26 -2.25,-10 -6.68,-14.2 -4.42,-4.2 -10.3,-6.3 -17.59,-6.3 -7.82,0 -13.66,1.72 -17.44,5.12 -3.82,3.43 -5.73,7.55 -5.73,12.4 0,4.73 1.68,8.51 5.04,11.26 3.35,2.75 10.19,5.19 20.45,7.33 15.3,3.28 26.68,7.75 34.12,13.36 7.44,5.65 11.18,13.16 11.18,22.63 0,10.72 -4.35,19.42 -13.02,26.02 -8.7,6.64 -20.03,9.96 -34.08,9.96 -15.42,0 -27.55,-3.93 -36.44,-11.75 -8.85,-7.82 -13.05,-16.95 -12.63,-27.36l0.23 -0.69 21.03 0c0.38,7.75 3.28,13.44 8.74,17.02 5.42,3.59 11.79,5.38 19.08,5.38 7.86,0 13.97,-1.56 18.4,-4.73 4.47,-3.13 6.68,-7.29 6.68,-12.4z"/>
  <path class="fil1" d="M2251.34 463.49l0 -375.6 -151.83 0 0 -87.9 495.46 0 71.92 0 271.71 0 0 87.9 -239.74 0 -31.97 0 -71.92 0 0 375.6 351.62 0 0 -87.9 -247.73 0 0 -103.89 146.06 0 0 -87.9 -146.06 0 -77.69 0 -26.2 0 0 -95.9 -239.73 0 0 375.6 -103.89 0zm-1835.79 0l0 -375.6 -415.55 0 0 95.9 95.9 0 7.99 0 215.77 0 0 87.9 -215.77 0 0 103.89 247.73 0 0 87.9 -351.61 0 0 -463.49 415.55 0 63.93 0 39.96 0 0 375.59 231.74 0 0 87.9 -335.64 0zm996.04 0l-161.9 -375.6 -333.57 0 0 95.9 207.77 0 0 87.9 -207.77 0 0 103.89 247.73 0 0 87.9 -359.6 0 0 -463.49 407.56 0 103.88 0 8 0 175.81 407.55 -63.93 0 175.81 -407.55 103.89 0 -199.8 463.49 -103.88 0z"/>
  <polygon class="fil2" points="2146.78,433.16 2146.78,433.16 2146.78,433.16 2143.24,431.02 2143.24,431.02 2143.24,431.02 2139.7,428.88 2139.7,428.88 2139.7,428.88 2136.16,426.75 2136.16,426.75 2136.16,426.75 2133.84,425.34 2133.84,425.34 2133.84,425.34 2132.62,424.61 2132.62,424.61 2132.62,424.61 2130.3,423.21 2130.3,423.21 2130.3,423.21 2129.08,422.48 2129.08,422.48 2126.76,421.07 2126.76,421.07 2126.76,421.07 2123.22,418.94 2123.22,418.94 2123.22,418.94 2122,418.2 2122,418.2 2119.68,416.8 2119.68,416.8 2119.68,416.8 2116.14,414.66 2116.14,414.66 2116.14,414.66 2112.6,412.53 2112.6,412.53 2112.6,412.53 2111.39,411.79 2109.06,410.39 2109.06,410.39 2109.06,410.39 2105.52,408.25 2105.52,408.25 2105.52,408.25 2101.98,406.12 2101.98,406.12 2101.98,406.12 2098.44,403.98 2098.44,403.98 2098.44,403.98 2096.12,402.58 2096.12,402.58 2096.12,402.58 2094.9,401.84 2094.9,401.84 2094.9,401.84 2092.58,400.44 2092.58,400.44 2092.58,400.44 2091.36,399.71 2091.36,399.71 2091.36,399.71 2089.04,398.3 2089.04,398.3 2089.04,398.3 2087.83,397.57 2087.83,397.57 2087.83,397.57 2085.5,396.17 2085.5,396.17 2085.5,396.17 2084.29,395.44 2084.29,395.44 2081.96,394.03 2081.96,394.03 2081.96,394.03 2080.75,393.3 2080.75,393.3 2080.75,393.3 2078.42,391.9 2078.42,391.9 2078.42,391.9 2077.21,391.16 2077.21,391.16 2074.88,389.76 2074.88,389.76 2074.88,389.76 2073.67,389.03 2071.34,387.62 2071.34,387.62 2071.34,387.62 2070.13,386.89 2067.8,385.49 2067.8,385.49 2067.8,385.49 2066.59,384.75 2064.26,383.35 2064.26,383.35 2064.26,383.35 2060.73,381.21 2060.73,381.21 2060.72,381.21 2059.51,380.48 2057.19,379.08 2057.19,379.08 2057.19,379.08 2054.86,377.68 2054.86,377.68 2054.86,377.68 2053.65,376.94 2053.65,376.94 2053.65,376.94 2051.32,375.54 2051.32,375.54 2051.32,375.54 2050.11,374.81 2050.11,374.81 2050.11,374.81 2047.78,373.41 2047.78,373.41 2047.78,373.41 2046.57,372.67 2046.57,372.67 2046.57,372.67 2044.24,371.27 2044.24,371.27 2044.24,371.27 2043.03,370.54 2043.03,370.54 2043.03,370.54 2040.7,369.13 2040.7,369.13 2040.7,369.13 2039.49,368.4 2037.16,367 2037.16,367 2037.16,367 2035.95,366.26 2035.95,366.26 2035.95,366.26 2033.62,364.86 2033.62,364.86 2033.62,364.86 2032.41,364.13 2032.41,364.13 2032.41,364.13 2030.09,362.72 2030.09,362.72 2030.09,362.72 2026.55,360.59 2026.55,360.59 2026.55,360.59 2025.33,359.86 2025.33,359.86 2025.33,359.86 2023.01,358.45 2023.01,358.45 2023.01,358.45 2019.47,356.32 2019.47,356.32 2019.47,356.32 2017.14,354.91 2017.14,354.91 2017.14,354.91 2015.93,354.18 2015.93,354.18 2015.93,354.18 2013.6,352.78 2013.6,352.78 2013.6,352.78 2012.39,352.04 2012.39,352.04 2012.39,352.04 2010.06,350.64 2010.06,350.64 2010.06,350.64 2008.85,349.91 2008.85,349.91 2008.85,349.91 2006.52,348.5 2006.52,348.5 2006.52,348.5 2005.31,347.77 2005.31,347.77 2005.31,347.77 2002.98,346.37 2002.98,346.37 2002.98,346.37 2001.77,345.63 2001.77,345.63 2001.77,345.63 1999.44,344.23 1999.44,344.23 1999.44,344.23 1998.23,343.5 1998.23,343.5 1998.23,343.5 1995.9,342.09 1995.9,342.09 1995.9,342.09 1994.69,341.36 1994.69,341.36 1994.69,341.36 1992.36,339.96 1992.36,339.96 1992.36,339.96 1991.15,339.22 1991.15,339.22 1991.15,339.22 1988.82,337.82 1988.82,337.82 1988.82,337.82 1987.61,337.09 1987.61,337.09 1987.61,337.09 1985.28,335.69 1985.28,335.69 1985.28,335.69 1985.13,335.59 1984.99,335.35 1984.68,334.8 1984.68,334.8 1984.68,334.8 1983.82,333.32 1983.82,333.32 1983.51,332.77 1983.51,332.77 1983.51,332.77 1982.65,331.28 1982.65,331.28 1982.65,331.28 1981.47,329.26 1981.47,329.26 1981.47,329.26 1980.3,327.22 1980.3,327.22 1980.3,327.22 1979.44,325.74 1979.44,325.74 1979.44,325.74 1978.27,323.71 1978.27,323.7 1978.27,323.7 1977.1,321.67 1977.1,321.67 1977.1,321.67 1976.24,320.19 1976.24,320.19 1976.24,320.19 1975.92,319.64 1975.92,319.64 1975.92,319.64 1975.06,318.15 1975.06,318.15 1975.06,318.15 1973.89,316.12 1973.89,316.12 1973.89,316.12 1972.72,314.09 1972.72,314.09 1972.72,314.09 1971.86,312.61 1971.54,312.06 1971.54,312.06 1971.54,312.06 1970.69,310.57 1970.69,310.57 1970.69,310.57 1969.52,308.54 1969.52,308.54 1969.52,308.54 1968.34,306.51 1968.34,306.51 1968.34,306.51 1967.48,305.02 1967.48,305.02 1966.31,302.99 1966.31,302.99 1966.31,302.99 1965.14,300.96 1965.14,300.96 1965.14,300.96 1963.96,298.93 1963.96,298.93 1963.96,298.93 1963.11,297.44 1963.11,297.44 1963.11,297.44 1961.93,295.41 1961.93,295.41 1961.93,295.41 1960.76,293.38 1960.76,293.38 1960.76,293.38 1959.9,291.89 1959.9,291.89 1959.9,291.89 1959.59,291.35 1959.59,291.35 1959.59,291.35 1958.73,289.86 1958.73,289.86 1958.73,289.86 1957.55,287.83 1957.55,287.83 1957.55,287.83 1956.38,285.8 1956.38,285.8 1956.38,285.8 1955.52,284.31 1954.35,282.28 1954.35,282.28 1954.35,282.28 1953.18,280.25 1953.18,280.25 1953.18,280.25 1952,278.21 1952,278.21 1952,278.21 1951.14,276.73 1951.14,276.73 1951.14,276.73 1949.98,274.7 1949.98,274.7 1949.97,274.7 1948.8,272.67 1948.8,272.67 1948.8,272.67 1947.94,271.18 1947.94,271.18 1947.63,270.63 1947.63,270.63 1947.63,270.63 1946.77,269.15 1946.77,269.15 1946.77,269.15 1945.6,267.11 1945.6,267.11 1945.6,267.11 1944.42,265.08 1944.42,265.08 1944.42,265.08 1942.39,261.56 1942.39,261.56 1942.39,261.56 1941.22,259.54 1941.22,259.53 1941.22,259.53 1940.05,257.5 1940.05,257.5 1940.05,257.5 1939.19,256.02 1939.19,256.02 1939.19,256.02 1938.01,253.98 1938.01,253.98 1938.01,253.98 1936.84,251.95 1936.84,251.95 1936.84,251.95 1935.98,250.46 1935.67,249.92 1935.67,249.92 1935.67,249.92 1934.81,248.43 1934.81,248.43 1934.81,248.43 1933.64,246.4 1933.64,246.4 1933.64,246.4 1932.47,244.37 1932.47,244.37 1932.47,244.37 1931.6,242.88 1930.43,240.85 1930.43,240.85 1930.43,240.85 1929.26,238.82 1929.26,238.82 1929.26,238.82 1928.09,236.79 1928.09,236.79 1928.09,236.79 1927.23,235.3 1927.23,235.3 1927.23,235.3 1926.06,233.27 1926.06,233.27 1926.06,233.27 1924.88,231.24 1924.88,231.24 1924.88,231.24 1923.71,229.21 1923.71,229.21 1923.71,229.21 1922.85,227.72 1922.85,227.72 1922.85,227.72 1921.68,225.69 1921.68,225.69 1921.68,225.69 1920.51,223.66 1920.51,223.65 1920.5,223.65 1919.65,222.17 1918.47,220.14 1918.47,220.14 1917.3,218.11 1917.3,218.11 1917.3,218.11 1916.13,216.08 1916.13,216.08 1916.13,216.08 1914.1,212.56 1914.1,212.56 1914.1,212.56 1912.93,210.52 1912.93,210.52 1912.93,210.52 1910.89,207 1910.89,207 1910.89,207 1909.72,204.97 1909.72,204.97 1909.72,204.97 1908.55,202.94 1908.55,202.94 1908.55,202.94 1906.52,199.43 1905.34,197.39 1905.34,197.39 1905.34,197.39 1904.17,195.36 1904.17,195.36 1904.17,195.36 1902.14,191.84 1902.14,191.84 1902.14,191.84 1900.96,189.81 1900.96,189.81 1900.96,189.81 1898.93,186.29 1898.93,186.29 1897.76,184.26 1897.76,184.26 1897.76,184.26 1897.3,183.46 1898.87,180.74 1898.87,180.74 1898.87,180.74 1900.04,178.71 1901.21,176.68 1903.25,173.16 1903.25,173.16 1903.25,173.16 1904.42,171.13 1904.42,171.13 1904.42,171.13 1905.59,169.1 1906.77,167.06 1907.62,165.58 1907.62,165.58 1907.62,165.58 1908.8,163.55 1908.8,163.55 1908.8,163.55 1909.97,161.52 1909.97,161.52 1909.97,161.52 1911.14,159.48 1913.18,155.97 1913.18,155.97 1913.18,155.97 1914.35,153.93 1914.35,153.93 1914.35,153.93 1915.52,151.9 1915.52,151.9 1915.52,151.9 1917.55,148.39 1917.55,148.39 1917.55,148.39 1918.73,146.35 1918.73,146.35 1918.73,146.35 1919.9,144.32 1919.9,144.32 1919.9,144.32 1921.07,142.29 1921.07,142.29 1921.07,142.29 1921.93,140.8 1921.93,140.8 1921.93,140.8 1923.1,138.77 1923.1,138.77 1923.1,138.77 1924.27,136.74 1924.27,136.74 1924.27,136.74 1925.45,134.71 1925.45,134.71 1925.45,134.71 1926.31,133.22 1926.31,133.22 1926.31,133.22 1926.62,132.68 1926.62,132.68 1926.62,132.68 1927.48,131.19 1927.48,131.19 1927.48,131.19 1927.79,130.64 1927.79,130.64 1927.79,130.64 1928.65,129.16 1928.65,129.16 1928.65,129.16 1929.83,127.12 1929.83,127.12 1929.83,127.12 1930.68,125.64 1930.68,125.64 1930.68,125.64 1931,125.1 1931,125.1 1931,125.1 1931.86,123.61 1931.86,123.61 1931.86,123.61 1932.17,123.06 1932.17,123.06 1932.17,123.06 1933.03,121.58 1933.03,121.58 1933.03,121.58 1933.35,121.03 1933.35,121.03 1933.35,121.03 1934.2,119.54 1934.2,119.54 1934.2,119.54 1935.06,118.06 1935.06,118.06 1935.06,118.06 1935.38,117.51 1935.38,117.51 1935.38,117.51 1936.24,116.03 1936.24,116.03 1936.24,116.02 1936.55,115.48 1936.55,115.48 1936.55,115.48 1937.41,113.99 1937.41,113.99 1937.41,113.99 1937.72,113.45 1937.72,113.45 1937.72,113.45 1938.58,111.96 1938.58,111.96 1938.58,111.96 1938.89,111.42 1938.89,111.42 1938.89,111.42 1939.44,110.47 1939.44,110.47 1939.44,110.47 1939.75,109.93 1939.76,109.93 1939.76,109.93 1940.61,108.45 1940.61,108.45 1940.61,108.45 1940.92,107.9 1940.92,107.9 1940.92,107.9 1941.78,106.41 1941.78,106.41 1941.78,106.41 1942.1,105.87 1942.1,105.87 1942.1,105.87 1942.96,104.38 1942.96,104.38 1942.96,104.38 1943.27,103.84 1943.27,103.84 1943.27,103.84 1944.13,102.35 1944.13,102.35 1944.13,102.35 1944.44,101.81 1944.44,101.81 1944.44,101.81 1944.99,100.86 1944.99,100.86 1944.99,100.86 1945.3,100.32 1945.3,100.32 1945.3,100.32 1946.16,98.83 1946.16,98.83 1946.16,98.83 1946.48,98.29 1946.48,98.29 1946.48,98.29 1947.33,96.8 1947.33,96.8 1947.33,96.8 1947.65,96.25 1947.65,96.25 1947.65,96.25 1948.51,94.77 1948.51,94.77 1948.51,94.77 1948.82,94.22 1948.82,94.22 1948.82,94.22 1949.37,93.28 1949.37,93.28 1949.37,93.28 1949.68,92.74 1949.68,92.74 1949.68,92.74 1950,92.19 1950,92.19 1950,92.19 1950.26,91.73 1950.31,91.82 1950.31,91.82 1950.31,91.82 1951.17,93.3 1951.48,93.85 1951.48,93.85 1951.48,93.85 1952.34,95.34 1952.34,95.34 1952.34,95.34 1952.66,95.88 1952.66,95.88 1952.66,95.88 1953.51,97.36 1953.51,97.36 1953.51,97.36 1954.68,99.4 1954.68,99.4 1954.68,99.4 1955.54,100.88 1955.86,101.43 1955.86,101.43 1955.86,101.43 1956.72,102.91 1956.72,102.91 1956.72,102.91 1957.03,103.46 1957.03,103.46 1957.03,103.46 1957.89,104.95 1957.89,104.95 1957.89,104.95 1959.06,106.98 1959.06,106.98 1959.06,106.98 1960.24,109.01 1960.24,109.01 1960.24,109.01 1961.09,110.5 1961.09,110.5 1961.09,110.5 1961.41,111.04 1961.41,111.04 1961.41,111.04 1962.27,112.53 1962.27,112.53 1962.27,112.53 1963.44,114.56 1963.44,114.56 1963.44,114.56 1964.61,116.59 1964.61,116.59 1964.61,116.59 1965.47,118.08 1965.47,118.08 1965.79,118.62 1965.79,118.63 1965.79,118.63 1966.65,120.11 1966.65,120.11 1966.65,120.11 1967.82,122.14 1967.82,122.14 1967.82,122.14 1968.99,124.17 1968.99,124.17 1968.99,124.17 1969.85,125.66 1969.85,125.66 1970.16,126.2 1970.16,126.2 1970.17,126.2 1971.02,127.69 1971.02,127.69 1971.02,127.69 1972.19,129.72 1972.19,129.72 1972.19,129.72 1973.37,131.76 1973.37,131.76 1973.37,131.76 1974.23,133.24 1974.54,133.79 1974.54,133.79 1974.54,133.79 1975.4,135.28 1975.4,135.28 1975.4,135.28 1976.57,137.3 1976.57,137.3 1976.57,137.3 1977.74,139.34 1977.74,139.34 1977.74,139.34 1978.6,140.82 1978.92,141.37 1978.92,141.37 1978.92,141.37 1979.78,142.85 1979.78,142.86 1979.78,142.86 1980.95,144.89 1980.95,144.89 1980.95,144.89 1982.12,146.92 1982.12,146.92 1982.12,146.92 1983.3,148.95 1983.3,148.95 1983.3,148.95 1985.33,152.47 1985.33,152.47 1985.33,152.47 1986.5,154.5 1986.5,154.5 1986.5,154.5 1987.67,156.53 1987.67,156.53 1987.67,156.53 1988.53,158.02 1988.53,158.02 1988.53,158.02 1989.71,160.05 1989.71,160.05 1989.71,160.05 1990.88,162.08 1990.88,162.08 1990.88,162.08 1992.05,164.11 1992.05,164.11 1992.05,164.11 1994.08,167.63 1994.08,167.63 1994.08,167.63 1995.25,169.66 1995.25,169.66 1995.25,169.66 1996.43,171.7 1996.43,171.7 1996.43,171.7 1997.29,173.18 1998.46,175.21 1998.46,175.21 1999.63,177.24 1999.63,177.24 1999.63,177.24 2000.8,179.28 2000.8,179.28 2000.8,179.28 2002.84,182.8 2002.84,182.8 2002.84,182.8 2004.01,184.83 2004.01,184.83 2004.01,184.83 2005.18,186.86 2005.18,186.86 2005.18,186.86 2006.36,188.89 2006.36,188.89 2006.36,188.89 2007.21,190.37 2007.21,190.37 2007.21,190.37 2008.38,192.41 2008.38,192.41 2008.38,192.41 2009.56,194.44 2009.56,194.44 2009.56,194.44 2010.73,196.47 2010.73,196.47 2010.73,196.47 2011.59,197.96 2011.59,197.96 2011.59,197.96 2012.76,199.99 2012.76,199.99 2012.76,199.99 2013.94,202.02 2013.94,202.02 2013.94,202.02 2015.11,204.05 2015.11,204.05 2015.11,204.05 2015.97,205.54 2017.14,207.57 2017.14,207.57 2018.31,209.6 2018.31,209.6 2018.31,209.6 2019.49,211.63 2019.49,211.63 2019.49,211.63 2021.52,215.15 2021.52,215.15 2021.52,215.15 2022.69,217.18 2022.69,217.18 2022.69,217.18 2023.86,219.22 2023.86,219.22 2023.86,219.22 2025.89,222.74 2027.07,224.77 2027.07,224.77 2027.07,224.77 2028.24,226.8 2028.24,226.8 2028.24,226.8 2030.27,230.32 2030.27,230.32 2030.27,230.32 2031.44,232.35 2031.44,232.35 2031.44,232.35 2032.62,234.38 2032.62,234.38 2032.62,234.38 2035.82,239.93 2035.82,239.93 2035.82,239.93 2037,241.96 2037,241.96 2037,241.96 2039.03,245.48 2040.2,247.51 2040.2,247.51 2041.37,249.54 2041.37,249.54 2041.37,249.54 2044.58,255.09 2044.58,255.09 2044.58,255.09 2045.75,257.12 2045.75,257.12 2045.75,257.12 2048.95,262.68 2050.13,264.71 2050.13,264.71 2050.13,264.71 2054.5,272.29 2054.5,272.29 2054.5,272.29 2057.71,277.84 2058.88,279.87 2058.88,279.87 2058.88,279.87 2060.06,281.9 2060.06,281.9 2060.06,281.9 2063.26,287.45 2063.26,287.45 2063.26,287.45 2064.43,289.48 2064.43,289.48 2064.43,289.48 2067.64,295.03 2068.81,297.06 2068.81,297.06 2068.81,297.06 2072.01,302.62 2072.01,302.62 2072.01,302.62 2073.19,304.64 2073.19,304.64 2073.19,304.64 2077.56,312.23 2077.56,312.23 2077.56,312.23 2080.77,317.78 2080.77,317.78 2081.94,319.81 2081.94,319.81 2081.94,319.81 2086.32,327.39 2090.7,334.97 2091.87,337 2091.87,337 2091.87,337 2096.25,344.58 2096.25,344.58 2096.25,344.58 2100.62,352.17 2100.62,352.17 2100.62,352.17 2105,359.75 2105,359.75 2105,359.75 2108.2,365.3 2109.38,367.33 2113.76,374.91 2113.76,374.91 2113.76,374.91 2147.7,433.71 "/>
  <path class="fil3" d="M2059.32 464.16l0 -0 -0 0 -0.04 -0.06 0 -0 0 0 -0.04 -0.06 0 -0 0 0 -0.04 -0.06 0 -0 -0 0 -0.04 -0.06 0 -0.01 -0 0 -0.04 -0.05 0 -0.01 -0 0 -0.04 -0.05 0 -0.01 -0.01 0 -0.04 -0.05 0 -0.01 -0 0 -0.1 -0.15 0 0 0 0 -0.04 -0.06 0 0 0 0 -0.04 -0.06 0 -0 -0 0 -0.04 -0.06 0 -0 0 0 -0.04 -0.06 0 -0 0 0 -0.04 -0.06 0 -0 -0 0c-0.07,-0.11 -0.15,-0.23 -0.23,-0.34l0 0 0 0 -0.04 -0.06 0 0 0 0 -0.04 -0.06 0 0 -0 0c-0.12,-0.18 -0.23,-0.35 -0.35,-0.52l0 0 0 0c-1.05,-1.54 -2.13,-3.05 -3.22,-4.55l0 0 0 0c-0.56,-0.77 -1.13,-1.52 -1.7,-2.28l0 0 0 0c-0.43,-0.57 -0.86,-1.13 -1.3,-1.7l0 0 0 0c-0.97,-1.26 -1.95,-2.5 -2.95,-3.73l0 0 0 0c-0.07,-0.08 -0.13,-0.15 -0.19,-0.23l0 0 0 0c-0.45,-0.56 -0.91,-1.11 -1.36,-1.65l0 0c-3.11,-3.73 -6.36,-7.33 -9.74,-10.81l0 0 0 0c-0.82,-0.85 -1.65,-1.68 -2.49,-2.52 -1.99,-1.97 -4.02,-3.9 -6.1,-5.78l0 0 0 0c-1,-0.91 -2,-1.8 -3.02,-2.68l0 0 0 0c-1.18,-1.02 -2.38,-2.04 -3.58,-3.03l0 0 0 0c-2.35,-1.95 -4.75,-3.84 -7.2,-5.68l0 0 0 0c-1.72,-1.29 -3.47,-2.56 -5.24,-3.79l0 0 0 0c-0.25,-0.18 -0.5,-0.35 -0.75,-0.52 -2.69,-1.86 -5.43,-3.64 -8.21,-5.36l0 0c-2.24,-1.39 -4.52,-2.73 -6.83,-4.02l0 0 0 0c-0.49,-0.27 -0.98,-0.55 -1.47,-0.82l0 0 0 0c-1.39,-0.77 -2.79,-1.51 -4.21,-2.24 -0.39,-0.2 -0.78,-0.41 -1.17,-0.61l0 0 0 0c-0.11,-0.06 -0.23,-0.11 -0.34,-0.17l0 0 -0.04 -0.02 0 0 0 0c-2.36,-1.19 -4.75,-2.34 -7.16,-3.44 -3.7,-1.68 -7.47,-3.24 -11.29,-4.69l0 0 0 0c-0.19,-0.07 -0.37,-0.14 -0.56,-0.21l0 0 0 0c-0.19,-0.07 -0.38,-0.14 -0.56,-0.21l0 0 0 0c-0.19,-0.07 -0.38,-0.14 -0.57,-0.21l0 0 0 0c-0.19,-0.07 -0.37,-0.14 -0.56,-0.21l0 0c-0.51,-0.19 -1.02,-0.36 -1.53,-0.54l-0.35 -0.13c-0.12,-0.04 -0.24,-0.08 -0.36,-0.12l0 0 0 0c-0.12,-0.04 -0.23,-0.09 -0.35,-0.13l0 0 0 0c-0.95,-0.33 -1.9,-0.65 -2.85,-0.96l0 0c-1.07,-0.35 -2.13,-0.69 -3.2,-1.02l0 0 -0 0c-0.58,-0.18 -1.16,-0.35 -1.74,-0.52l0 0 0 0c-3.36,-1.01 -6.76,-1.92 -10.2,-2.75l0 0 0 0c-1.83,-0.44 -3.68,-0.85 -5.53,-1.23l0 0 0 0c-1.65,-0.34 -3.32,-0.66 -4.98,-0.96l0 0 0 0c-1.36,-0.25 -2.73,-0.48 -4.1,-0.69l0 0c-0.32,-0.05 -0.64,-0.1 -0.96,-0.15l0 0 0 0c-3.12,-0.47 -6.27,-0.87 -9.45,-1.19l0 0 0 0c-0.65,-0.07 -1.31,-0.13 -1.97,-0.19l0 0 -0 0c-0.4,-0.04 -0.79,-0.07 -1.19,-0.11l0 0 0 0c-1.67,-0.14 -3.35,-0.26 -5.03,-0.35l0 0 -0 0c-0.12,-0.01 -0.25,-0.02 -0.37,-0.02l0 0c-2.92,-0.16 -5.86,-0.26 -8.82,-0.29l0 -0 -0.37 0c-0.52,-0 -1.05,-0.01 -1.57,-0.01l-88.38 0 2.42 -4.19 0 0 0 0 3.52 -6.1 0 0 0 0 1.17 -2.03 0 0 0 0 1.17 -2.03 0 0 0 0 1.17 -2.03 0 0 0 0 1.17 -2.03 0 0 0 0 1.17 -2.03 1.17 -2.03 0 0 0 0 2.35 -4.06 1.17 -2.03 0 0 0 0 2.35 -4.06 12.59 -21.8 0 0 0 0 3.52 -6.09 0 0 0 -0 1.17 -2.03 0 0 0 0 1.17 -2.03 0 0 0 0 1.17 -2.03 1.17 -2.03 0 0 0 0 1.17 -2.03 0 0 0 0 1.17 -2.03 0 0 1.17 -2.03 0 0 0 0 2.35 -4.06 0 0 7.73 -13.39 34.62 0 0.52 0c0.72,0 1.44,0 2.16,0.01l0 0 0.26 0c0.58,0 1.16,0.01 1.73,0.02l0 0 0.08 0c0.33,0.01 0.65,0.01 0.97,0.02l0 0 0.28 0c0.26,0.01 0.51,0.01 0.77,0.02l0 0.01 0.24 0c0.27,0 0.54,0.01 0.8,0.02l0 0 0.07 0c0.24,0 0.47,0.01 0.71,0.02l0 0 0.07 0c0.19,0 0.37,0.01 0.56,0.02l0 0 0.15 0 0.48 0.01 0 0.01 0.18 0c0.15,0 0.3,0.01 0.44,0.02l0 0 0.16 0c0.16,0 0.31,0.01 0.47,0.02l0 0 0.12 0c0.17,0.01 0.34,0.01 0.51,0.02l0 0 0.03 0 0.51 0.02 0 0 0.01 0 0.43 0.02 0 0 0.07 0 0.37 0.02 0 0 0.11 0 0.35 0.02 0 0.01 0.12 0 0.33 0.01 0 0.01 0.12 0 0.34 0.02 0 0 0.09 0 0.35 0.02 0 0 0.08 0 0.38 0.02 0 0 0.02 0c0.25,0.01 0.5,0.02 0.76,0.04l0 0 0.02 0 0.33 0.02 0 0 0.05 0 0.28 0.02 0 0 0.09 0 0.27 0.02 0 0 0.09 0 0.26 0.02 0 0 0.09 0 0.24 0.02 0 0 0.09 0 0.26 0.02 0 0.01 0.08 0 0.28 0.02 0 0 0.06 0 0.27 0.02 0 0 0.05 0 0.31 0.02 0 0 0.01 0c0.21,0.01 0.41,0.02 0.61,0.04l0 0 0.01 0 0.26 0.02 0 0 0.04 0 0.25 0.02 0 0 0.05 0 0.24 0.02 0 0 0.05 0 0.22 0.02 0 0 0.07 0 0.22 0.02 0 0 0.07 0 0.22 0.02 0 0.01 0.06 0 0.21 0.01 0 0.01 0.07 0 0.23 0.02 0 0 0.05 0 0.22 0.02 0 0 0.05 0 0.24 0.02 0 0 0.03 0 0.27 0.02 0 0c0.17,0.01 0.35,0.03 0.52,0.04l0 0 0 0 0.23 0.02 0 0 0.02 0 0.23 0.02 0 0 0.03 0 0.2 0.02 0 0 0.05 0 0.2 0.02 0 0.01 0.05 0 0.18 0.01 0 0.01 0.07 0 0.19 0.01 0 0.01 0.06 0 0.17 0.01 0 0.01 0.07 0 0.18 0.02 0 0 0.05 0 0.2 0.02 0 0 0.04 0 0.19 0.02 0 0 0.05 0 0.2 0.02 0 0 0.03 0 0.2 0.02 0 0 0.02 0 0.23 0.02 0 0 0 0 0.23 0.02 0 0 0 0c0.15,0.02 0.29,0.03 0.44,0.04l0 0 0 0 0.21 0.02 0 0 0.02 0 0.19 0.02 0 0 0.02 0 0.19 0.02 0 0 0.03 0 0.17 0.02 0 0 0.04 0 0.17 0.02 0 0 0.05 0 0.16 0.02 0 0 0.05 0 0.16 0.02 0 0 0.05 0 0.16 0.02 0 0 0.05 0 0.16 0.02 0 0 0.04 0 0.17 0.02 0 0 0.04 0 0.17 0.02 0 0 0.03 0 0.17 0.02 0 0 0.03 0 0.18 0.02 0 0 0.02 0 0.19 0.02 0 0 0.01 0c0.26,0.02 0.52,0.05 0.79,0.08l0 0 0 0 0.19 0.02 0 0 0.01 0 0.18 0.02 0 0 0.01 0 0.16 0.02 0 0 0.03 0 0.16 0.02 0 0 0.03 0 0.15 0.02 0 0 0.04 0 0.15 0.02 0 0 0.03 0 0.16 0.02 0 0 0.03 0 0.14 0.01 0 0.01 0.05 0 0.14 0.02 0 0 0.05 0 0.14 0.02 0 0 0.04 0 0.15 0.02 0 0 0.03 0 0.16 0.02 0 0 0.02 0 0.14 0.02 0 0 0.04 0 0.15 0.02 0 0 0.03 0 0.16 0.02 0 0 0.02 0 0.17 0.02 0 0 0.01 0 0.35 0.04 0 0 0 0c0.23,0.02 0.46,0.05 0.69,0.08l0 0 0 0 0.14 0.02 0 0 0.03 0 0.14 0.02 0 0 0.03 0 0.14 0.02 0 0 0.03 0 0.14 0.02 0 0 0.03 0 0.14 0.02 0 0 0.03 0 0.14 0.02 0 0 0.03 0 0.14 0.02 0 0 0.03 0 0.14 0.02 0 0 0.03 0 0.12 0.01 0 0.01 0.04 0 0.12 0.02 0 0 0.04 0 0.13 0.02 0 0 0.03 0 0.14 0.02 0 0 0.03 0 0.14 0.02 0 0 0.03 0 0.14 0.02 0 0 0.02 0 0.15 0.02 0 0 0.01 0 0.16 0.02 0 0 0.14 0.02 0 0 0.01 0 0.16 0.02 0 0 0 0 0.31 0.04 0 0 0 0c0.15,0.02 0.3,0.04 0.46,0.06l0 0 0.01 0 0.14 0.02 0 0 0.01 0 0.13 0.02 0 0 0.02 0 0.12 0.02 0 0 0.03 0 0.12 0.02 0 0 0.03 0 0.12 0.02 0 0.01 0.04 0 0.11 0.01 0 0.01 0.04 0 0.12 0.02 0 0 0.02 0 0.12 0.02 0 0 0.03 0 0.12 0.02 0 0 0.03 0 0.12 0.02 0 0 0.03 0 0.12 0.02 0 0 0.03 0 0.12 0.02 0 0 0.03 0 0.12 0.02 0 0 0.03 0 0.12 0.02 0 0 0.03 0 0.13 0.02 0 0 0.01 0 0.14 0.02 0 0 0.01 0 0.14 0.02 0 0 0 0 0.14 0.02 0 0 0 0 0.14 0.02 0 0 0 0c0.19,0.02 0.38,0.05 0.56,0.08l0 0 0 0 0.27 0.04 0 0 0.02 0 0.13 0.02 0 0 0.01 0 0.12 0.02 0 0 0.02 0 0.12 0.02 0 0 0.02 0 0.11 0.02 0 0 0.02 0 0.12 0.02 0 0 0.02 0 0.11 0.02 0 0 0.03 0 0.12 0.02 0 0 0.02 0 0.1 0.02 0 0 0.03 0 0.12 0.02 0 0 0.02 0 0.1 0.02 0 0 0.03 0 0.12 0.02 0 0 0.02 0 0.1 0.02 0 0 0.03 0 0.12 0.02 0 0 0.02 0 0.11 0.02 0 0 0.02 0 0.12 0.02 0 0 0.02 0 0.11 0.02 0 0 0.02 0 0.12 0.02 0 0 0.01 0 0.12 0.02 0 0 0.01 0 0.13 0.02 0 0 0.13 0.02 0 0 0 0c0.38,0.06 0.77,0.12 1.15,0.19l0 0 0.02 0 0.1 0.02 0 0 0.03 0 0.1 0.02 0 0 0.03 0 0.09 0.02 0 0 0.03 0 0.1 0.02 0 0 0.03 0 0.09 0.02 0 0 0.03 0 0.1 0.02 0 0 0.03 0 0.09 0.02 0 0 0.03 0 0.09 0.02 0 0.01 0.03 0 0.09 0.01 0 0.01 0.03 0 0.09 0.02 0 0 0.03 0 0.1 0.02 0 0 0.02 0 0.1 0.02 0 0 0.02 0 0.1 0.02 0 0 0.02 0 0.1 0.02 0 0 0.02 0 0.11 0.02 0 0 0.02 0 0.11 0.02 0 0 0.02 0 0.11 0.02 0 0 0.01 0 0.11 0.02 0 0 0.01 0 0.12 0.02 0 0 0 0c0.2,0.03 0.4,0.07 0.6,0.1l0 0 0 0 0.35 0.06 0 0 0 0 0.23 0.04 0 0 0.01 0 0.12 0.02 0 0 0 0 0.1 0.02 0 0 0.02 0 0.11 0.02 0 0 0.01 0 0.1 0.02 0 0 0.02 0 0.1 0.02 0 0 0.01 0 0.09 0.02 0 0 0.02 0 0.1 0.02 0 0 0.02 0 0.09 0.02 0 0 0.02 0 0.1 0.02 0 0 0.02 0 0.09 0.02 0 0 0.03 0 0.09 0.02 0 0 0.02 0 0.09 0.02 0 0 0.03 0 0.09 0.02 0 0 0.02 0 0.09 0.01 0 0.01 0.02 0 0.1 0.02 0 0 0.02 0 0.09 0.02 0 0 0.02 0 0.1 0.02 0 0 0.02 0 0.09 0.02 0 0 0.02 0 0.1 0.02 0 0 0.01 0 0.09 0.02 0 0 0.02 0 0.11 0.02 0 0 0.01 0 0.22 0.04 0 0 0 0c0.26,0.05 0.52,0.1 0.77,0.15l0 0 0 0 0.1 0.02 0 0 0.01 0 0.09 0.02 0 0 0.02 0 0.11 0.02 0 0 0 0 0.1 0.02 0 0 0.01 0 0.1 0.02 0 0 0.01 0 0.09 0.02 0 0 0.02 0 0.09 0.02 0 0 0.02 0 0.09 0.02 0 0 0.02 0 0.08 0.02 0 0 0.03 0 0.1 0.02 0 0 0.01 0 0.09 0.02 0 0 0.01 0 0.09 0.02 0 0 0.02 0 0.09 0.02 0 0 0.02 0 0.09 0.02 0 0 0.02 0 0.08 0.02 0 0 0.02 0 0.08 0.02 0 0 0.02 0 0.08 0.02 0 0.01 0.02 0 0.1 0.02 0 0 0 0 0.1 0.02 0 0 0.01 0 0.09 0.02 0 0 0.01 0 0.09 0.02 0 0 0.01 0 0.09 0.02 0 0 0.02 0 0.09 0.02 0 0 0.01 0 0.09 0.02 0 0 0.01 0c0.38,0.08 0.76,0.15 1.14,0.23l0 0 0 0 0.1 0.02 0 0 0 0 0.1 0.02 0 0 0 0 0.4 0.08 0 0 0.01 0 0.09 0.02 0 0 0.01 0 0.09 0.02 0 0 0.01 0 0.1 0.02 0 0 0 0c0.13,0.03 0.26,0.05 0.4,0.08l0 0 0.01 0 0.09 0.02 0 0 0 0c0.56,0.12 1.12,0.24 1.68,0.36 10.32,2.22 20.43,5.02 30.3,8.34 1.84,0.62 3.66,1.25 5.49,1.91l0 0 0 0c2.7,0.97 5.38,1.99 8.04,3.04l0 0 0 0c4.21,1.66 8.37,3.42 12.48,5.28 23.29,10.52 44.89,24.1 64.3,40.23l0 0 0 0c3.21,2.67 6.36,5.4 9.44,8.21l0 0 0 0c5.8,5.27 11.39,10.79 16.74,16.52 5.59,6 10.92,12.24 15.98,18.7 3.52,4.5 6.91,9.11 10.15,13.82l1.28 2.22 30.25 52.39 -105.92 0c-0.08,-0.12 -0.16,-0.24 -0.25,-0.37z"/>
  <path class="fil4" d="M1630.43 462.23l0 0 0 0 4.38 -7.58 0 0 4.38 -7.58 0 0 0 0 3.2 -5.55 0 0 0 0 4.38 -7.58 0 0 0 0 1.17 -2.03 0 0 3.2 -5.55 0 0 0 0 4.38 -7.58 0 0 1.17 -2.03 2.03 -3.52 0 0 0 0 1.17 -2.03 0 0 0 0 1.17 -2.03 2.03 -3.52 0 0 0 0 1.17 -2.03 0 0 0 0 3.21 -5.55 0 0 0 0 1.17 -2.03 0 0 0 0 3.2 -5.55 0 0 0 0 1.17 -2.03 0 0 0 0 2.03 -3.52 0 0 0 0 1.17 -2.03 0 0 0 -0 3.2 -5.55 0 0 0 0 1.17 -2.03 0 0 0 0 1.17 -2.03 0 0 0 0 2.03 -3.52 0 0 0 0 1.17 -2.03 0 0 0 0 3.2 -5.55 0 0 0 0 1.17 -2.03 0 0 0 0 1.17 -2.03 0 0 0.86 -1.49 0 0 0 0 1.17 -2.03 0 0 0 0 1.17 -2.03 0 0 0 0 2.03 -3.52 0 0 0 0 1.17 -2.03 0 0 0 -0 1.17 -2.03 0 0 1.17 -2.03 0.86 -1.49 0 0 0 0 1.17 -2.03 0 0 0 0 1.17 -2.03 0 0 0 0 1.17 -2.03 0.86 -1.49 0 0 0 0 1.17 -2.03 0 0 0 0 1.17 -2.03 0 0 0 0 0.86 -1.49 0 0 0 0 1.17 -2.03 0 0 0 0 1.17 -2.03 0 0 0 0 1.17 -2.03 0.86 -1.49 0 0 0 0 1.17 -2.03 0 0 0 0 1.17 -2.03 0 0 0 0 1.17 -2.03 0 0 0 0 0.86 -1.49 0 0 0 0 1.17 -2.03 0 0 0 0 1.17 -2.03 0 0 0 0 2.03 -3.52 0 0 0 0 1.17 -2.03 0 0 0 0 1.17 -2.03 0 0 0 0 0.86 -1.49 0 0 0 0 0.31 -0.54 0 0 0 0 0.86 -1.49 0 0 0 0 1.17 -2.03 0 0 0 0 1.17 -2.03 0 0 0 0 0.86 -1.49 0 0 0 0 1.17 -2.03 0 0 0 0 1.17 -2.03 0 0 0 0 1.17 -2.03 0 0 0 0 0.86 -1.49 0 0 0 0 0.31 -0.54 0 0 0.86 -1.49 0 0 0 -0 1.17 -2.03 0 0 0 0 1.17 -2.03 0 0 0 0 0.86 -1.49 0 0 0 0 1.17 -2.03 0 0 0 0 1.17 -2.03 0 0 0 0 0.86 -1.49 0 0 0 0 0.31 -0.54 0 0 0.86 -1.49 0 0 0 0 0.31 -0.54 0.86 -1.49 0 0 0 0 1.17 -2.03 0 0 0 0 0.86 -1.49 0 0 0 0 0.31 -0.54 0 0 0 0 0.86 -1.49 0 0 0 0 0.31 -0.54 0.86 -1.49 0 0 0 0 1.17 -2.03 0 0 0 0 0.86 -1.49 0 0 0 0 0.31 -0.54 0 0 0 0 0.86 -1.49 0 0 0 0 1.17 -2.03 0 0 0 0 1.17 -2.03 0 0 0 0 0.86 -1.49 0 0 0 0 0.31 -0.54 0 0 0.86 -1.49 0 0 0 -0 0.31 -0.54 0.86 -1.49 0 0 0 0 1.17 -2.03 0 0 0 0 0.86 -1.49 0 0 0 0 0.32 -0.54 0 0 0 0 0.86 -1.49 0 0 0 0 1.17 -2.03 0 0 0 0 0.86 -1.49 0 0 0 0 0.31 -0.54 0 0 0 0 0.86 -1.49 0 0 0 0 0.31 -0.54 0.86 -1.49 0 0 0 0 1.17 -2.03 0 0 0 0 0.86 -1.49 0 0 0 0 0.32 -0.54 0 0 0 0 0.86 -1.49 0 0 0 0 0.32 -0.54 0 0 0 0 0.86 -1.49 0 0 0 0 1.17 -2.03 0 0 0 0 0.86 -1.49 0 0 0 0 0.31 -0.54 0 0 0 0 0.86 -1.49 0 0 0 -0 1.17 -2.03 0 0 0 0 1.17 -2.03 0 0 0 0 0.86 -1.49 0 0 0 0 0.31 -0.54 0 0 0 0 0.86 -1.49 0 0 0 0 0.31 -0.55 0 0 0.86 -1.49 0 0 0 0 0.86 -1.49 0 0 0 0 0.31 -0.54 0 0 0 -0 0.86 -1.49 0 0 0 0 0.31 -0.54 0 0 0 0 0.86 -1.49 0 0 0 0 1.17 -2.03 0 0 0 0 0.86 -1.49 0 0 0 0 0.31 -0.54 0 0 0 0 0.86 -1.49 0 0 0 0 0.31 -0.54 0 0 0 0 0.86 -1.49 0 0 0 0 1.17 -2.03 0 0 0 0 0.86 -1.49 0 0 0 0 0.32 -0.54 0 0 0 0 0.86 -1.49 0 0 0 0 0.32 -0.54 0 0 0 0 0.86 -1.49 0 0 0 0 0.32 -0.54 0 0 0.86 -1.49 0 0 0 0 0.86 -1.49 0 0 0 0 0.31 -0.54 0 0 0 0 0.86 -1.49 0 0 0 -0 0.31 -0.54 0 0 0 0 0.86 -1.49 0 0 0 0 0.86 -1.49 0 0 0 0 0.32 -0.55 0 0 0 0 0.86 -1.49 0 0 0 0 0.32 -0.54 0 0 0 0 0.86 -1.49 0 0 0 0 0.32 -0.55 0 0 0.86 -1.49 0 0 0 0 0.31 -0.54 0.86 -1.49 0 0 0 -0 0.86 -1.49 0 0 0 0 0.31 -0.54 0 0 0 0 0.86 -1.49 0 0 0 0 0.31 -0.55 0 0 0 0 0.86 -1.49 0 0 0 0 0.86 -1.49 0 0 0 0 0.31 -0.54 0 0 0 0 0.86 -1.49 0 0 0 0 0.31 -0.54 0 0 0 0 0.86 -1.49 0 0 0 0 0.31 -0.54 0.86 -1.49 0 0 0 0 0.86 -1.49 0 0 0 0 0.31 -0.54 0 0 0 0 0.86 -1.49 0 0 0 -0 0.31 -0.54 0 0 0 0 0.86 -1.49 0 0 0 0 0.32 -0.54 0 0 0 0 0.86 -1.49 0 0 0 0 0.86 -1.49 0 0 0 0 0.31 -0.54 0 0 0 0 0.86 -1.49 0 0 0 -0 0.31 -0.54 0 0 0 0 0.86 -1.49 0 0 0 0 0.86 -1.49 0 0 0 0 0.31 -0.54 0 0 0 -0 0.86 -1.49 0 0 0 0 0.32 -0.54 0 0 0 0 0.86 -1.49 0 0 0 0 0.32 -0.55 0 0 0 0 0.86 -1.49 0 0 0 0 0.86 -1.49 0 0 0 0 0.31 -0.54 0 0 0 0 0.86 -1.49 0 0 0 0 0.31 -0.54 0 0 0 0 0.86 -1.49 0 0 0 0 0.31 -0.54 0 0 0 -0 0.86 -1.49 0 0 0 0 0.86 -1.49 0 0 0 0 0.32 -0.54 0 0 0 0 0.86 -1.49 0 0 0 0 0.32 -0.54 0 0 0 0 0.86 -1.49 0 0 0 0 0.32 -0.54 0 0 0 0 0.86 -1.49 0 0 0 0 0.86 -1.49 0 0 0 0 0.31 -0.54 0 0 0 0 0.86 -1.49 0 0 0 -0 0.31 -0.54 0 0 0 0 0.86 -1.49 0 0 0 0 0.31 -0.54 0 0 0 0 0.54 -0.94 0 0 0 0 0.32 -0.55 0 0 0 0 0.31 -0.54 0 0 0.54 -0.94 0 0 0 0 0.31 -0.54 0 0 0 0 0.86 -1.49 0 0 0 0 0.31 -0.55 0 0 0 0 0.86 -1.49 0 0 0 0 0.31 -0.54 0 0 0 0 0.55 -0.94 0 0 0 0 0.31 -0.54 0 0 0 -0 0.86 -1.49 0 0 0 0 0.31 -0.54 0 0 0 0 0.86 -1.49 0 0 0 0 0.31 -0.55 0 0 0 0 0.86 -1.49 0 0 0 0 0.32 -0.54 0 0 0.54 -0.94 0 0 0 0 0.31 -0.54 0 0 0 0 0.32 -0.55 0.54 -0.94 0 0 0 0 0.31 -0.54 0 0 0 0 0.86 -1.49 0 0 0 0 0.31 -0.54 0 0 0 0 0.86 -1.49 0 0 0 0 0.31 -0.54 0 0 0 0 0.54 -0.94 0 0 0 0 0.31 -0.54 0 0 0 0 0.05 -0.09 0.81 -1.4 0 0 0 0 0.32 -0.54 0 0 0 0 0.86 -1.49 0 0 0 0 0.32 -0.54 0 0 0 0 0.86 -1.49 0 0 0 0 0.86 -1.49 0 0 0 0 0.31 -0.54 0 0 0 0 0.86 -1.49 0 0 0 -0 0.31 -0.54 0 0 0 0 0.86 -1.49 0 0 0 0 0.86 -1.49 0 0 0 0 0.32 -0.55 0 0 0 0 0.86 -1.49 0 0 0 0 0.32 -0.54 0 0 0 0 0.86 -1.49 0 0 0 0 0.32 -0.55 0 0 0.86 -1.49 0 0 0 0 1.17 -2.03 0 0 0 0 0.86 -1.49 0 0 0 0 0.31 -0.54 0 0 0 0 0.86 -1.49 0 0 0 0 1.17 -2.03 0 0 0 0 1.17 -2.03 0 0 0 0 0.86 -1.49 0 0 0 0 1.17 -2.03 0 0 0 0 1.17 -2.03 0 0 0 0 1.17 -2.03 0 0 0.86 -1.49 0 0 0 -0 1.17 -2.03 0 0 0 0 1.17 -2.03 0 0 0 0 2.03 -3.52 0 0 0 0 1.17 -2.03 0 0 0 0 3.2 -5.55 0 0 0 0 22.68 -39.29c4.02,6.97 8.04,13.93 12.06,20.9l0.31 0.55 0 0 0 0 0.31 0.54 0 0 0 0 0.32 0.54 0 0 0 0 0.31 0.54 0 0 0 0 0.31 0.54 0 0 0 0 0.23 0.4 0 0 0 0 0.09 0.15 0 0 0 0 0.23 0.4 0 0 0 0 0.08 0.14 0 0 0 0 0.23 0.4 0 0 0 0 0.08 0.14 0 0 0 0 0.23 0.4 0 0 0 0 0.09 0.14 0 0 0 0 0.23 0.4 0 0 0 0 0.08 0.14 0 0 0 0 0.23 0.4 0 0 0 0 0.08 0.14 0 0 0 0 0.23 0.4 0 0 0 0 0.08 0.14 0 0 0 0 0.14 0.25 0 0 0 0 0.08 0.14 0 0 0 0 0.08 0.14 0 0 0 0 0.14 0.25 0 0 0 0 0.09 0.14 0 0 0 0 0.08 0.14 0 0 0 0 0.14 0.25 0 0 0 0 0.08 0.15 0 0 0 0 0.08 0.14 0 0 0 0 0.14 0.25 0 0 0 0 0.08 0.14 0 0 0 0 0.08 0.14 0 0 0 0 0.14 0.25 0 0 0 0 0.08 0.14 0 0 0 0 0.08 0.14 0 0 0 0 0.14 0.25 0 0 0 0 0.08 0.14 0 0 0 0 0.08 0.14 0 0 0 0 0.14 0.25 0 0 0 0 0.08 0.14 0 0 0 0 0.08 0.14 0 0 0 0 0.06 0.1 0 0 0.08 0.15 0 0 0 0 0.08 0.14 0 0 0 0 0.08 0.14 0 0 0 0 0.06 0.11 0 0 0 0 0.09 0.14 0 0 0 0 0.08 0.14 0 0 0 0 0.08 0.14 0 0 0 0 0.06 0.11 0 0 0 0 0.08 0.14 0 0 0 0 0.08 0.14 0 0 0 0 0.08 0.14 0 0 0 0 0.06 0.1 0 0 0 0 0.08 0.14 0 0 0 0 0.08 0.14 0 0 0 0 0.08 0.14 0 0 0 0 0.06 0.1 0 0 0 0 0.09 0.15 0 0 0 0 0.08 0.14 0 0 0 0 0.08 0.14 0 0 0 0 0.06 0.11 0 0 0 0 0.08 0.14 0 0 0 0 0.08 0.14 0 0 0 0 0.08 0.14 0 0.01 0 0 0.06 0.1 0 0 0 0 0.08 0.14 0 0 0 0 0.08 0.14 0 0 0 0 0.08 0.14 0 0 0 0 0.06 0.1 0 0 0 0 0.09 0.14 0 0 0 0 0.08 0.14 0 0 0 0 0.14 0.25 0 0 0 0 0.08 0.14 0 0 0 0 0.08 0.14 0 0 0 0 0.06 0.1 0 0 0 0 0.08 0.15 0 0 0 0 0.08 0.14 0 0 0 0 0.08 0.14 0 0 0 0 0.06 0.11 0 0 0 0 0.08 0.14 0 0 0 0 0.09 0.14 0 0 0 0 0.08 0.14 0 0 0 0 0.06 0.11 0 0 0 0 0.09 0.14 0 0 0 0 0.08 0.14 0 0 0 0 0.08 0.14 0 0 0 0 0.06 0.1 0 0 0 0 0.08 0.14 0 0 0 0 0.08 0.14 0 0 0 0 0.08 0.14 0 0 0 0 0.06 0.1 0 0 0 0 0.08 0.15 0 0 0 0 0.09 0.14 0 0 0 0 0.08 0.14 0 0 0 0 0.06 0.11 0 0 0 0 0.09 0.14 0 0 0 0 0.08 0.14 0 0 0 0 0.08 0.14 0 0.01 0 0 0.06 0.1 0 0 0 0 0.08 0.14 0 0 0 0 0.08 0.14 0 0 0 0 0.08 0.14 0 0 0 0 0.06 0.1 0 0 0 0 0.08 0.14 0 0 0 0 0.08 0.14 0 0 0 0 0.08 0.14 0 0 0 0 0.06 0.1 0 0 0 0 0.08 0.14 0 0 0 0 0.08 0.14 0 0 0 0 0.08 0.14 0 0.01 0 0 0.06 0.1 0 0 0 0 0.08 0.14 0 0 0 0 0.08 0.14 0 0 0 0 0.08 0.14 0 0.01 0 0 0.06 0.1 0 0 0 0 0.08 0.14 0 0 0 0 0.08 0.14 0 0 0 0 0.06 0.11 0 0 0 0 0.02 0.04 0 0 0 0 0.06 0.1 0 0 0 0 0.08 0.14 0 0 0 0 0.08 0.14 0 0 0 0 0.06 0.1 0 0 0 0 0.02 0.04 0 0 0 0 0.06 0.1 0 0 0 0 0.08 0.14 0 0 0 0 0.08 0.14 0 0 0 0 0.06 0.1 0 0 0 0 0.02 0.03 0 0.01 0 0 0.06 0.1 0 0 0 0 0.08 0.14 0 0 0 0 0.08 0.14 0 0 0 0 0.06 0.11 0 0 0 0 0.02 0.04 0 0 0 0 0.06 0.1 0 0 0 0 0.08 0.14 0 0 0 0 0.08 0.14 0 0 0 0 0.06 0.1 0 0 0 0 0.02 0.04 0 0 0 0 0.06 0.1 0 0 0 0 0.08 0.14 0 0 0 0 0.08 0.14 0 0 0 0 0.06 0.1 0 0 0 0 0.02 0.04 0 0.01 0 0 0.06 0.1 0 0 0 0 0.08 0.14 0 0 0 0 0.08 0.14 0 0 0 0 0.06 0.11 0 0 0 0 0.02 0.03 0 0.01 0 0 0.06 0.1 0 0 0 0 0.08 0.14 0 0 0 0 0.08 0.14 0 0.01 0 0 0.06 0.1 0 0 0 0 0.02 0.04 0 0 0 0 0.06 0.1 0 0 0 0 0.08 0.14 0 0 0 0 0.08 0.14 0 0 0 0 0.06 0.1 0 0 0 0 0.02 0.04 0 0 0 0 0.06 0.1 0 0 0 0 0.08 0.14 0 0 0 0 0.08 0.14 0 0 0 0 0.06 0.1 0 0 0 0 0.02 0.03 0 0.01 0 0 0.06 0.1 0 0 0 0 0.08 0.14 0 0 0 0 0.08 0.14 0 0 0 0 0.06 0.11 0 0 0 0 0.02 0.03 0 0.01 0 0 0.06 0.1 0 0 0 0 0.08 0.14 0 0 0 0 0.08 0.14 0 0.01 0 0 0.06 0.1 0 0 0 0 0.02 0.04 0 0 0 0 0.06 0.1 0 0 0 0 0.08 0.14 0 0 0 0 0.08 0.14 0 0 0 0 0.06 0.1 0 0 0 0 0.02 0.04 0 0.01 0 0 0.06 0.1 0 0 0 0 0.08 0.14 0 0 0 0 0.08 0.14 0 0 0 0 0.06 0.1 0 0 0 0 0.02 0.03 0 0.01 0 0 0.06 0.1 0 0 0 0 0.08 0.14 0 0 0 0 0.08 0.14 0 0.01 0 0 0.06 0.1 0 0 0 0 0.02 0.04 0 0 0 0 0.06 0.1 0 0 0 0 0.08 0.14 0 0 0 0 0.08 0.14 0 0 0 0 0.06 0.1 0 0 0 0 0.02 0.04 0 0 0 0 0.06 0.1 0 0 0 0 0.08 0.14 0 0 0 0 0.08 0.14 0 0 0 0 0.06 0.1 0 0 0 0 0.02 0.03 0 0.01 0 0 0.06 0.1 0 0 0 0 0.08 0.14 0 0 0 0 0.08 0.14 0 0 0 0 0.06 0.11 0 0 0 0 0.02 0.03 0 0.01 0 0 0.06 0.1 0 0 0 0 0.08 0.14 0 0 0 0 0.08 0.14 0 0.01 0 0 0.06 0.1 0 0 0 0 0.02 0.04 0 0 0 0 0.06 0.1 0 0 0 0 0.08 0.14 0 0 0 0 0.08 0.14 0 0 0 0 0.06 0.1 0 0 0 0 0.02 0.04 0 0.01 0 0 0.06 0.1 0 0 0 0 0.08 0.14 0 0 0 0 0.08 0.14 0 0 0 0 0.06 0.1 0 0 0 0 0.02 0.03 0 0.01 0 0 0.06 0.1 0 0 0 0 0.08 0.14 0 0 0 0 0.06 0.1 0.02 0.04 0 0.01 0 0 0.06 0.1 0 0 0 0 0.02 0.04 0 0 0 0 0.06 0.1 0 0 0 0 0.08 0.14 0 0 0 0 0.08 0.14 0 0 0 0 0.06 0.1 0 0 0 0 0.02 0.04 0 0.01 0 0 0.06 0.1 0 0 0 0 0.08 0.14 0 0 0 0 0.06 0.1 0 0 0.02 0.04 0 0 0 0 0.06 0.1 0 0 0 0 0.02 0.03 0 0.01 0 0 0.06 0.1 0 0 0 0 0.08 0.14 0 0 0 0 0.06 0.1 0.02 0.04 0 0 0 0 0.06 0.11 0 0 0 0 0.02 0.03 0 0.01 0 0 0.06 0.1 0 0 0 0 0.08 0.14 0 0 0 0 0.06 0.11 0.02 0.03 0 0.01 0 0 0.06 0.1 0 0 0 0 0.08 0.14 0 0 0 0 0.08 0.14 0 0 0 0 0.06 0.11 0 0 0 0 0.02 0.04 0 0 0 0 0.06 0.1 0 0 0 0 0.08 0.14 0 0 0 0 0.08 0.14 0 0 0 0 0.06 0.1 0 0 0.02 0.04 0 0 0 0 0.06 0.1 0 0 0 0 0.08 0.14 0 0 0 0 0.08 0.14 0 0 0 0 0.08 0.14 0 0.01 0 0 0.06 0.1 0 0 0 0 0.08 0.14 0 0 0 0 0.08 0.14 0 0 0 0 0.06 0.11 0 0 0 0 0.02 0.04 0 0 0 0 0.06 0.1 0 0 0 0 0.08 0.14 0 0 0 0 0.08 0.14 0 0 0 0 0.06 0.1 0 0 0 0 0.02 0.04 0 0 0 0 0.06 0.1 0 0 0 0 0.08 0.14 0 0 0 0 0.08 0.14 0 0 0 0 0.08 0.14 0 0.01 0 0 0.06 0.1 0 0 0 0 0.08 0.14 0 0 0 0 0.08 0.14 0 0 0 0 0.06 0.11 0.02 0.03 0 0.01 0 0 0.06 0.1 0 0 0 0 0.08 0.14 0 0 0 0 0.08 0.14 0 0 0 0 0.08 0.14 0 0 0 0 0.06 0.1 0 0 0 0 0.08 0.14 0 0 0 0 0.08 0.14 0 0 0 0 0.08 0.14 0 0 0 0 0.06 0.11 0 0 0 0 0.08 0.14 0 0 0 0 0.08 0.14 0 0 0 0 0.08 0.14 0 0.01 0 0 0.06 0.1 0 0 0 0 0.08 0.14 0 0 0 0 0.08 0.14 0 0 0 0 0.08 0.14 0 0 0 0 0.06 0.1 0 0 0 0 0.08 0.14 0 0 0 0 0.08 0.14 0 0 0 0 0.08 0.14 0 0 0 0 0.06 0.1 0 0 0 0 0.08 0.14 0 0 0 0 0.08 0.14 0 0 0 0 0.08 0.14 0 0.01 0 0 0.06 0.1 0 0 0 0 0.08 0.14 0 0 0 0 0.08 0.14 0 0 0 0 0.08 0.14 0 0 0 0 0.06 0.1 0 0 0 0 0.09 0.14 0 0 0 0 0.08 0.14 0 0 0 0 0.08 0.14 0 0 0 0 0.06 0.1 0 0 0 0 0.08 0.14 0 0 0 0 0.08 0.14 0 0 0 0 0.08 0.14 0 0 0 0 0.06 0.11 0 0 0 0 0.08 0.14 0 0 0 0 0.08 0.14 0 0 0 0 0.08 0.14 0 0.01 0 0 0.06 0.1 0 0 0 0 0.09 0.14 0 0 0 0 0.08 0.14 0 0 0 0 0.08 0.14 0 0 0 0 0.06 0.1 0 0 0 0 0.08 0.15 0 0 0 0 0.08 0.14 0 0 0 0 0.08 0.14 0 0 0 0 0.06 0.11 0 0 0 0 0.08 0.14 0 0 0 0 0.08 0.14 0 0 0 0 0.08 0.14 0 0.01 0 0 0.06 0.1 0 0 0 0 0.09 0.14 0 0 0 0 0.08 0.14 0 0 0 0 0.08 0.14 0 0 0 0 0.06 0.1 0 0 0 0 0.08 0.14 0 0 0 0 0.08 0.14 0 0 0 0 0.08 0.14 0 0 0 0 0.06 0.1 0 0 0 0 0.08 0.14 0 0 0 0 0.08 0.14 0 0 0 0 0.08 0.14 0 0 0 0 0.06 0.11 0 0 0 0 0.09 0.14 0 0 0 0 0.08 0.14 0 0 0 0 0.08 0.14 0 0 0 0 0.06 0.1 0 0 0 0 0.08 0.14 0 0 0 0 0.08 0.14 0 0 0 0 0.08 0.14 0 0 0 0 0.06 0.1 0 0 0 0 0.08 0.15 0 0 0 0 0.09 0.14 0 0 0 0 0.08 0.14 0 0 0 0 0.06 0.11 0 0 0 0 0.09 0.14 0 0 0 0 0.08 0.14 0 0 0 0 0.08 0.14 0 0 0 0 0.06 0.1 0 0 0 0 0.08 0.14 0 0 0 0 0.08 0.14 0 0 0 0 0.08 0.14 0 0 0 0 0.06 0.1 0.08 0.15 0 0 0 0 0.09 0.14 0 0 0 0 0.08 0.14 0 0 0 0 0.14 0.25 0 0 0 0 0.08 0.14 0 0 0 0 0.08 0.14 0 0 0 0 0.14 0.25 0 0 0 0 0.08 0.14 0 0 0 0 0.08 0.14 0 0 0 0 0.14 0.25 0 0 0 0 0.08 0.14 0 0 0 0 0.08 0.14 0 0 0 0 0.14 0.25 0 0 0 0 0.08 0.14 0 0 0 0 0.08 0.14 0 0 0 0 0.14 0.25 0 0 0 0 0.08 0.14 0 0 0 0 0.08 0.14 0 0 0 0 0.14 0.25 0 0 0 0 0.08 0.14 0 0 0 0 0.08 0.14 0 0 0 0 0.14 0.25 0 0 0 0 0.08 0.14 0 0 0 0 0.08 0.14 0 0 0 0 0.14 0.25 0 0 0 0 0.08 0.14 0 0 0 0 0.23 0.4 0 0 0 0 0.08 0.14 0 0 0 0 0.23 0.4 0 0 0 0 0.09 0.14 0 0 0 0 0.23 0.4 0 0 0 0 0.08 0.14 0 0 0 0 0.31 0.54 0 0 0 0 0.31 0.54 0 0 0 0 0.31 0.54 0 0 0 0 0.31 0.54 0 0 0 0 0.32 0.54 0 0 0 0 0.31 0.54 0 0 0 0 0.31 0.54 0 0 0 0 0.32 0.54 0 0 0 0 0.31 0.54 0 0 0 0 3.31 5.74 0 0 0 0 0.31 0.54 0 0 0 0 0.32 0.54 0 0 0 0 0.4 0.69 0 0 0 0 0.32 0.54 0 0 0 0 0.31 0.54 0 0 0 0 0.08 0.14 0 0 0 0 0.23 0.4 0 0 0 0 0.09 0.14 0 0 0 0 0.23 0.4 0 0 0 0 0.08 0.14 0 0 0 0 0.23 0.4 0 0 0 0 0.08 0.14 0 0 0 0 0.09 0.14 0 0 0 0 0.23 0.4 0 0 0 0 0.08 0.14 0 0 0 0 0.23 0.4 0 0 0 0 0.08 0.14 0 0 0 0 0.23 0.4 0 0 0 0 0.08 0.14 0 0 0 0 0.08 0.14 0 0 0 0 0.14 0.25 0 0 0 0 0.09 0.14 0 0 0 0 0.08 0.14 0 0 0 0 0.14 0.25 0 0 0.08 0.14 0 0 0 0 0.08 0.14 0 0 0 0 0.23 0.4 0 0 0 0 0.08 0.15 0 0 0 0 0.08 0.14 0 0 0 0 0.14 0.25 0 0 0 0 0.08 0.14 0 0 0 0 0.08 0.14 0 0 0 0 0.14 0.25 0 0 0 0 0.08 0.14 0 0 0 0 0.08 0.14 0 0 0 0 0.14 0.25 0 0 0 0 0.09 0.15 0 0 0 0 0.08 0.14 0 0 0 0 0.08 0.14 0 0 0 0 0.06 0.11 0 0 0 0 0.08 0.14 0 0 0 0 0.08 0.14 0 0 0 0 0.08 0.14 0 0 0 0 0.14 0.25 0 0 0 0 0.08 0.14 0 0 0 0 0.08 0.14 0 0 0 0 0.14 0.25 0 0 0 0 0.08 0.14 0 0 0 0 0.08 0.14 0 0 0 0 0.08 0.14 0 0 0 0 0.06 0.1 0 0 0 0 0.08 0.14 0 0 0 0 0.08 0.14 0 0 0 0 0.08 0.14 0 0 0 0 0.06 0.1 0 0 0 0 0.09 0.15 0 0 0 0 0.08 0.14 0 0 0 0 0.08 0.14 0 0 0 0 0.14 0.25 0 0 0 0 0.08 0.14 0 0 0 0 0.08 0.14 0 0 0 0 0.08 0.14 0 0 0 0 0.06 0.1 0 0 0 0 0.09 0.14 0 0 0 0 0.08 0.14 0 0 0 0 0.08 0.14 0 0 0 0 0.06 0.11 0 0 0 0 0.08 0.14 0 0 0 0 0.08 0.14 0 0 0 0 0.08 0.14 0 0 0 0 0.06 0.1 0 0 0 0 0.08 0.14 0 0 0 0 0.08 0.14 0 0 0 0 0.08 0.14 0 0 0 0 0.08 0.14 0 0.01 0 0 0.06 0.1 0 0 0 0 0.08 0.14 0 0 0 0 0.08 0.14 0 0 0 0 0.08 0.14 0 0 0 0 0.06 0.1 0 0 0 0 0.08 0.15 0 0 0 0 0.08 0.14 0 0 0 0 0.08 0.14 0 0 0 0 0.06 0.11 0 0 0 0 0.02 0.03 0 0.01 0 0 0.06 0.1 0 0 0 0 0.08 0.14 0 0 0 0 0.08 0.14 0 0.01 0 0 0.06 0.1 0 0 0 0 0.02 0.04 0 0 0 0 0.06 0.1 0 0 0 0 0.08 0.14 0 0 0 0 0.08 0.14 0 0 0 0 0.08 0.14 0 0 0 0 0.06 0.11 0 0 0 0 0.09 0.14 0 0 0 0 0.08 0.14 0 0 0 0 0.08 0.14 0 0 0 0 0.06 0.1 0 0 0 0 0.02 0.04 0 0 0 0 0.06 0.1 0 0 0 0 0.08 0.14 0 0 0 0 0.08 0.14 0 0 0 0 0.06 0.1 0 0 0 0 0.02 0.04 0 0.01 0 0 0.06 0.1 0 0 0 0 0.08 0.14 0 0 0 0 0.08 0.14 0 0 0 0 0.06 0.11 0 0 0.02 0.04 0 0 0 0 0.06 0.1 0 0 0 0 0.08 0.14 0 0 0 0 0.08 0.14 0 0 0 0 0.08 0.14 0 0 0 0 0.06 0.1 0 0 0 0 0.02 0.03 0 0.01 0 0 0.06 0.1 0 0 0 0 0.08 0.14 0 0 0 0 0.08 0.14 0 0.01 0 0 0.06 0.1 0 0 0 0 0.02 0.04 0 0 0 0 0.06 0.1 0 0 0 0 0.08 0.14 0 0 0 0 0.08 0.14 0 0 0 0 0.06 0.1 0 0 0 0 0.02 0.04 0 0 0 0 0.06 0.11 0 0 0 0 0.08 0.14 0 0 0 0 0.08 0.14 0 0 0 0 0.08 0.14 0 0.01 0 0 0.06 0.1 0 0 0 0 0.02 0.04 0 0 0 0 0.06 0.1 0 0 0 0 0.08 0.14 0 0 0 0 0.08 0.14 0 0 0 0 0.06 0.1 0 0 0 0 0.02 0.04 0 0.01 0 0 0.06 0.1 0 0 0 0 0.08 0.14 0 0 0 0 0.08 0.14 0 0 0 0 0.06 0.11 0 0 0 0 0.02 0.03 0 0.01 0 0 0.06 0.1 0 0 0 0 0.08 0.14 0 0 0 0 0.08 0.14 0 0 0 0 0.06 0.1 0.02 0.04 0 0 0 0 0.06 0.1 0 0 0 0 0.02 0.03 0 0.01 0 0 0.06 0.1 0 0 0 0 0.08 0.14 0 0 0 0 0.08 0.14 0 0.01 0 0 0.06 0.1 0 0 0 0 0.02 0.04 0 0 0 0 0.06 0.1 0 0 0 0 0.08 0.14 0 0 0 0 0.08 0.14 0 0 0 0 0.06 0.1 0 0 0 0 0.02 0.04 0 0 0 0 0.06 0.1 0 0 0 0 0.08 0.14 0 0 0 0 0.08 0.14 0 0 0 0 0.06 0.11 0 0 0 0 0.02 0.03 0 0.01 0 0 0.06 0.1 0 0 0 0 0.02 0.04 0 0 0 0 0.06 0.1 0 0 0 0 0.08 0.14 0 0 0 0 0.08 0.14 0 0 0 0 0.06 0.1 0 0 0 0 0.02 0.04 0 0.01 0 0 0.06 0.1 0 0 0 0 0.08 0.14 0 0 0 0 0.08 0.14 0 0 0 0 0.06 0.11 0 0 0 0 0.02 0.03 0 0.01 0 0 0.06 0.1 0 0 0 0 0.08 0.14 0 0 0 0 0.08 0.14 0 0 0 0 0.06 0.1 0.02 0.04 0 0 0 0 0.06 0.1 0 0 0 0 0.02 0.03 0 0.01 0 0 0.06 0.1 0 0 0 0 0.08 0.14 0 0 0 0 0.08 0.14 0 0.01 0 0 0.06 0.1 0 0 0 0 0.02 0.04 0 0 0 0 0.06 0.1 0 0 0 0 0.08 0.14 0 0 0 0 0.08 0.14 0 0 0 0 0.06 0.1 0 0 0 0 0.02 0.04 0 0 0 0 0.06 0.1 0 0 0 0 0.09 0.14 0 0 0 0 0.08 0.14 0 0 0 0 0.06 0.11 0 0 0 0 0.02 0.03 0 0.01 0 0 0.06 0.1 0 0 0 0 0.02 0.04 0 0 0 0 0.06 0.1 0 0 0 0 0.08 0.14 0 0 0 0 0.08 0.14 0 0 0 0 0.06 0.1 0 0 0 0 0.02 0.04 0 0.01 0 0 0.06 0.1 0 0 0 0 0.08 0.14 0 0 0 0 0.08 0.14 0 0 0 0 0.06 0.11 0 0 0 0 0.02 0.03 0 0.01 0 0 0.06 0.1 0 0 0 0 0.02 0.04 0 0.01 0 0 0.06 0.1 0 0 0 0 0.08 0.14 0 0 0 0 0.06 0.1 0 0 0 0 0.02 0.04 0 0 0 0 0.06 0.1 0 0 0 0 0.02 0.03 0 0.01 0 0 0.06 0.1 0 0 0 0 0.08 0.14 0 0 0 0 0.08 0.14 0 0 0 0 0.06 0.11 0 0 0 0 0.02 0.04 0 0 0 0 0.06 0.1 0 0 0 0 0.08 0.14 0 0 0 0 0.08 0.14 0 0 0 0 0.06 0.1 0 0 0 0 0.02 0.04 0 0 0 0 0.06 0.1 0 0 0 0 0.02 0.03 0 0.01 0 0 0.06 0.1 0 0 0 0 0.08 0.14 0 0 0 0 0.06 0.1 0 0 0.02 0.03 0 0.01 0 0 0.06 0.1 0 0 0 0 0.02 0.04 0 0 0 0 0.06 0.1 0 0 0 0 0.08 0.14 0 0 0 0 0.08 0.14 0 0 0 0 0.06 0.1 0 0 0 0 0.02 0.04 0 0.01 0 0 0.06 0.1 0 0 0 0 0.08 0.14 0 0 0 0 0.08 0.14 0 0 0 0 0.06 0.11 0 0 0 0 0.02 0.03 0 0.01 0 0 0.06 0.1 0 0 0 0 0.02 0.04 0 0 0 0 0.06 0.1 0 0 0 0 0.08 0.14 0 0 0 0 0.08 0.14 0 0 0 0 0.06 0.1 0 0 0 0 0.02 0.03 0 0.01 0 0 0.06 0.1 0 0 0 0 0.08 0.14 0 0 0 0 0.08 0.14 0 0 0 0 0.06 0.11 0 0 0 0 0.02 0.04 0 0 0 0 0.06 0.1 0 0 0 0 0.09 0.14 0 0 0 0 0.08 0.14 0 0 0 0 0.06 0.1 0 0 0 0 0.02 0.04 0 0 0 0 0.06 0.1 0 0 0 0 0.02 0.03 0 0.01 0 0 0.06 0.1 0 0 0 0 0.08 0.14 0 0 0 0 0.08 0.14 0 0.01 0 0 0.06 0.1 0 0 0 0 0.02 0.04 0 0 0 0 0.06 0.1 0 0 0 0 0.08 0.14 0 0 0 0 0.08 0.14 0 0 0 0 0.06 0.1 0 0 0 0 0.02 0.04 0 0.01 0 0 0.06 0.1 0 0 0 0 0.08 0.14 0 0 0 0 0.08 0.14 0 0 0 0 0.06 0.11 0 0 0.02 0.03 0 0.01 0 0 0.06 0.1 0 0 0 0 0.02 0.04 0 0 0 0 0.06 0.1 0 0 0 0 0.08 0.14 0 0 0 0 0.08 0.14 0 0 0 0 0.06 0.1 0 0 0 0 0.02 0.03 0 0.01 0 0 0.06 0.1 0 0 0 0 0.08 0.14 0 0 0 0 0.08 0.14 0 0 0 0 0.06 0.11 0 0 0 0 0.02 0.04 0 0 0 0 0.06 0.1 0 0 0 0 0.08 0.14 0 0 0 0 0.08 0.14 0 0 0 0 0.08 0.14 0 0 0 0 0.06 0.11 0 0 0 0 0.02 0.03 0 0.01 0 0 0.06 0.1 0 0 0 0 0.08 0.14 0 0 0 0 0.08 0.14 0 0.01 0 0 0.06 0.1 0 0 0 0 0.02 0.04 0 0 0 0 0.06 0.1 0 0 0 0 0.08 0.14 0 0 0 0 0.08 0.14 0 0 0 0 0.06 0.1 0 0 0 0 0.02 0.04 0 0.01 0 0 0.06 0.1 0 0 0 0 0.08 0.14 0 0 0 0 0.08 0.14 0 0 0 0 0.08 0.14 0 0 0 0 0.06 0.1 0 0 0 0 0.02 0.04 0 0 0 0 0.06 0.1 0 0 0 0 0.08 0.14 0 0 0 0 0.08 0.14 0 0 0 0 0.06 0.11 0 0 0 0 0.02 0.03 0 0.01 0 0 0.06 0.1 0 0 0 0 0.08 0.14 0 0 0 0 0.08 0.14 0 0 0 0 0.08 0.14 0 0 0 0 0.06 0.1 0 0 0 0 0.08 0.15 0 0 0 0 0.08 0.14 0 0 0 0 0.08 0.14 0 0 0 0 0.06 0.11 0 0 0 0 0.02 0.03 0 0.01 0 0 0.06 0.1 0 0 0 0 0.08 0.14 0 0 0 0 0.08 0.14 0 0 0 0 0.08 0.14 0 0 0 0 0.06 0.1 0 0 0 0 0.08 0.14 0 0 0 0 0.08 0.14 0 0 0 0 0.08 0.14 0 0.01 0 0 0.06 0.1 0 0 0 0 0.02 0.04 0 0 0 0 0.06 0.1 0 0 0 0 0.08 0.14 0 0 0 0 0.08 0.14 0 0 0 0 0.06 0.1 0 0 0 0 0.02 0.04 0 0 0 0 0.06 0.11 0 0 0 0 0.08 0.14 0 0 0 0 0.08 0.14 0 0 0 0 0.08 0.14 0 0.01 0 0 0.06 0.1 0 0 0 0 0.08 0.14 0 0 0 0 0.08 0.14 0 0 0 0 0.08 0.14 0 0 0 0 0.06 0.1 0 0 0 0 0.02 0.04 0 0.01 0 0 0.06 0.1 0 0 0 0 0.08 0.14 0 0 0 0 0.08 0.14 0 0 0 0 0.08 0.14 0 0 0 0 0.06 0.1 0 0 0 0 0.08 0.14 0 0 0 0 0.08 0.14 0 0 0 0 0.08 0.14 0 0 0 0 0.06 0.11 0 0 0 0 0.08 0.14 0 0 0 0 0.08 0.14 0 0 0 0 0.08 0.14 0 0.01 0 0 0.08 0.14 0 0 0 0 0.06 0.1 0 0 0 0 0.08 0.14 0 0 0 0 0.08 0.14 0 0 0 0 0.08 0.14 0 0 0 0 0.06 0.11 0 0 0 0 0.08 0.14 0 0 0 0 0.08 0.14 0 0 0 0 0.08 0.14 0 0 0 0 0.06 0.1 0 0 0 0 0.09 0.14 0 0 0 0 0.08 0.14 0 0 0 0 0.08 0.14 0 0 0 0 0.08 0.14 0 0.01 0 0 0.06 0.1 0 0 0 0 0.08 0.14 0 0 0 0 0.08 0.14 0 0 0 0 0.08 0.14 0 0 0 0 0.06 0.1 0 0 0 0 0.09 0.15 0 0 0 0 0.08 0.14 0 0 0 0 0.08 0.14 0 0 0 0 0.14 0.25 0 0 0 0 0.08 0.14 0 0 0 0 0.08 0.14 0 0 0 0 0.08 0.14 0 0 0 0 0.06 0.11 0 0 0 0 0.09 0.14 0 0 0 0 0.08 0.14 0 0 0 0 0.08 0.14 0 0 0 0 0.14 0.25 0 0 0 0 0.08 0.15 0 0 0 0 0.08 0.14 0 0 0 0 0.14 0.25 0 0 0 0 0.09 0.14 0 0 0 0 0.08 0.14 0 0 0 0 0.08 0.14 0 0 0 0 0.14 0.25 0 0 0 0 0.08 0.14 0 0 0 0 0.08 0.14 0 0 0 0 0.14 0.25 0 0 0 0 0.09 0.14 0 0 0 0 0.08 0.14 0 0 0 0 0.23 0.4 0 0 0 0 0.08 0.14 0 0 0 0 0.08 0.14 0 0 0 0 0.14 0.25 0 0 0 0 0.09 0.14 0 0 0 0 0.08 0.14 0 0 0 0 0.23 0.4 0 0 0 0 0.08 0.14 0 0 0 0 0.23 0.4 0 0 0 0 0.09 0.15 0 0 0 0 0.08 0.14 0 0 0 0 0.23 0.4 0 0 0 0 0.08 0.14 0 0 0 0 0.23 0.4 0 0 0 0 0.09 0.14 0 0 0 0 0.08 0.14 0 0 0 0 0.23 0.4 0 0 0 0 0.08 0.15 0 0 0 0 0.23 0.4 0 0 0 0 0.09 0.14 0 0 0 0 0.31 0.54 0 0 0 0 0.08 0.14 0 0 0 0 0.23 0.4 0 0 0 0 0.09 0.14 0 0 0 0 0.31 0.54 0 0 0 0 0.31 0.54 0 0 0 0 0.09 0.14 0 0 0 0 0.31 0.54 0 0 0 0 0.31 0.54 0.4 0.69 0 0 0 0 10.71 18.59c-9.62,-9.8 -22.48,-16.3 -36.7,-17.94l0 0 -0 0c-0.15,-0.02 -0.31,-0.04 -0.46,-0.05 -0.03,-0 -0.07,-0 -0.1,-0.01l0 0 -0 0c-0.07,-0.01 -0.14,-0.01 -0.21,-0.02l0 0 -0.01 0c-0.06,-0.01 -0.12,-0.01 -0.18,-0.02l0 0 -0.03 0c-0.07,-0.01 -0.13,-0.02 -0.2,-0.02l0 -0 -0.02 0c-23.03,-2.19 -45.22,8.78 -57.52,28.13l0 0 0 0 -0.04 0.06 -0 0 0 0 -0.04 0.06 -0 0 0 0.01 -0.06 0.1 0 0 0 0 -0.04 0.06 -0 0 0 0c-0.02,0.03 -0.04,0.07 -0.06,0.1l0 0 0 0c-0.05,0.07 -0.09,0.14 -0.14,0.21l-1.92 3.33 -0.46 0.8 0 0 0 0 -1.17 2.03 0 0 -3.2 5.55 0 0 0 0 -3.21 5.55 0 0 0 0 -4.38 7.58 -3.21 5.55 0 0 0 0 -1.17 2.03 0 0 -3.2 5.55 0 0 0 0 -3.21 5.55 0 0 0 0 -4.38 7.58 -3.21 5.55 0 0 0 0 -4.38 7.58 0 0 -3.21 5.55 0 0 0 0 -4.38 7.58 -3.2 5.55 0 0 0 0 -4.38 7.58 0 0 -3.2 5.55 0 0 0 0 -7.58 13.13 -4.38 7.58 0 0 -3.2 5.55 0 0 0 0 -4.38 7.58 0 0 0 0 -3.2 5.55 0 0 0 0 -7.58 13.13 0 0 -4.38 7.58 0 0 -3.21 5.55 0 0 0 0 -7.58 13.13 0 0 -7.58 13.13 0 0 0 0 -7.58 13.13 -27.12 46.97 -15.16 26.27 -5.8 10.04 -105.92 0 1.33 -2.3z"/>
 </g>
</svg>
