<?xml version="1.0" encoding="UTF-8"?>
<!DOCTYPE svg PUBLIC "-//W3C//DTD SVG 1.1//EN" "http://www.w3.org/Graphics/SVG/1.1/DTD/svg11.dtd">
<!-- Creator: CorelDRAW -->
<svg xmlns="http://www.w3.org/2000/svg" xml:space="preserve" width="30.48mm" height="30.48mm" version="1.1" style="shape-rendering:geometricPrecision; text-rendering:geometricPrecision; image-rendering:optimizeQuality; fill-rule:evenodd; clip-rule:evenodd"
viewBox="0 0 16890.85 16890.85"
 xmlns:xlink="http://www.w3.org/1999/xlink"
 xmlns:xodm="http://www.corel.com/coreldraw/odm/2003">
 <defs>
  <style type="text/css">
   <![CDATA[
    .fil2 {fill:url(#id0)}
    .fil0 {fill:url(#id1)}
    .fil1 {fill:url(#id2)}
   ]]>
  </style>
  <linearGradient id="id0" gradientUnits="userSpaceOnUse" x1="2319.78" y1="32819.56" x2="7971.5" y2="-7205.43">
   <stop offset="0" style="stop-opacity:1; stop-color:#0083B3"/>
   <stop offset="1" style="stop-opacity:1; stop-color:#6A49F2"/>
  </linearGradient>
  <linearGradient id="id1" gradientUnits="userSpaceOnUse" x1="8708.6" y1="20034.72" x2="18252.98" y2="-7155.83">
   <stop offset="0" style="stop-opacity:1; stop-color:#00A6FF"/>
   <stop offset="1" style="stop-opacity:1; stop-color:#6A49F2"/>
  </linearGradient>
  <linearGradient id="id2" gradientUnits="userSpaceOnUse" x1="25691.6" y1="29627.37" x2="386.03" y2="1497.18">
   <stop offset="0" style="stop-opacity:1; stop-color:blue"/>
   <stop offset="1" style="stop-opacity:1; stop-color:#6A49F2"/>
  </linearGradient>
 </defs>
 <g id="Capa_x0020_1">
  <metadata id="CorelCorpID_0Corel-Layer"/>
  <polygon class="fil0" points="16301.66,15750.33 16301.66,15750.33 16301.66,15750.33 16190.22,15672.63 16190.22,15672.63 16190.22,15672.63 16078.78,15595 16078.78,15595 16078.78,15595 15967.28,15517.3 15967.28,15517.3 15967.28,15517.3 15894.08,15466.26 15894.08,15466.26 15894.08,15466.26 15855.84,15439.61 15855.84,15439.61 15855.84,15439.61 15782.64,15388.57 15782.64,15388.57 15782.64,15388.57 15744.4,15361.92 15744.4,15361.92 15671.19,15310.93 15671.19,15310.93 15671.19,15310.93 15559.7,15233.24 15559.7,15233.24 15559.7,15233.24 15521.46,15206.58 15521.46,15206.58 15448.25,15155.55 15448.25,15155.55 15448.25,15155.55 15336.81,15077.85 15336.81,15077.85 15336.81,15077.85 15225.31,15000.21 15225.31,15000.21 15225.31,15000.21 15187.08,14973.56 15113.87,14922.52 15113.87,14922.52 15113.87,14922.52 15002.43,14844.83 15002.43,14844.83 15002.43,14844.83 14890.93,14767.13 14890.93,14767.13 14890.93,14767.13 14779.49,14689.5 14779.49,14689.5 14779.49,14689.5 14706.29,14638.46 14706.29,14638.46 14706.29,14638.46 14668.05,14611.8 14668.05,14611.8 14668.05,14611.8 14594.84,14560.76 14594.84,14560.76 14594.84,14560.76 14556.55,14534.11 14556.55,14534.11 14556.55,14534.11 14483.35,14483.13 14483.35,14483.07 14483.35,14483.07 14445.11,14456.47 14445.11,14456.42 14445.11,14456.42 14371.91,14405.43 14371.91,14405.43 14371.91,14405.43 14333.67,14378.78 14333.67,14378.78 14260.46,14327.74 14260.46,14327.74 14260.46,14327.74 14222.17,14301.08 14222.17,14301.08 14222.17,14301.08 14148.97,14250.05 14148.97,14250.05 14148.97,14250.05 14110.73,14223.39 14110.73,14223.39 14037.52,14172.41 14037.52,14172.41 14037.52,14172.41 13999.29,14145.75 13926.08,14094.71 13926.08,14094.71 13926.08,14094.71 13887.79,14068.06 13814.59,14017.02 13814.59,14017.02 13814.59,14017.02 13776.35,13990.37 13703.14,13939.33 13703.14,13939.33 13703.14,13939.33 13591.7,13861.69 13591.7,13861.69 13591.7,13861.69 13553.46,13835.03 13480.2,13784 13480.2,13784 13480.2,13784 13407,13732.96 13407,13732.96 13407,13732.96 13368.76,13706.3 13368.76,13706.3 13368.76,13706.3 13295.56,13655.32 13295.56,13655.26 13295.56,13655.26 13257.32,13628.61 13257.32,13628.61 13257.32,13628.61 13184.12,13577.63 13184.12,13577.63 13184.12,13577.63 13145.82,13550.97 13145.82,13550.97 13145.82,13550.97 13072.62,13499.93 13072.62,13499.93 13072.62,13499.93 13034.38,13473.28 13034.38,13473.28 13034.38,13473.28 12961.18,13422.24 12961.18,13422.24 12961.18,13422.24 12922.94,13395.58 12849.73,13344.6 12849.73,13344.55 12849.73,13344.55 12811.5,13317.89 12811.5,13317.89 12811.44,13317.89 12738.24,13266.91 12738.24,13266.91 12738.24,13266.91 12700,13240.25 12700,13240.25 12700,13240.25 12626.8,13189.21 12626.8,13189.21 12626.8,13189.21 12515.35,13111.52 12515.35,13111.52 12515.35,13111.52 12477.12,13084.87 12477.12,13084.87 12477.12,13084.87 12403.86,13033.88 12403.86,13033.83 12403.86,13033.83 12292.41,12956.19 12292.41,12956.19 12292.41,12956.19 12219.21,12905.15 12219.21,12905.15 12219.21,12905.15 12180.97,12878.5 12180.97,12878.5 12180.97,12878.5 12107.77,12827.46 12107.77,12827.46 12107.77,12827.46 12069.53,12800.8 12069.53,12800.8 12069.47,12800.8 11996.27,12749.82 11996.27,12749.82 11996.27,12749.82 11958.03,12723.16 11958.03,12723.16 11958.03,12723.16 11884.83,12672.13 11884.83,12672.13 11884.83,12672.13 11846.59,12645.47 11846.59,12645.47 11846.59,12645.47 11773.39,12594.43 11773.39,12594.43 11773.39,12594.43 11735.15,12567.78 11735.15,12567.78 11735.09,12567.78 11661.94,12516.74 11661.94,12516.74 11661.89,12516.74 11623.65,12490.08 11623.65,12490.08 11623.65,12490.08 11550.45,12439.1 11550.45,12439.1 11550.45,12439.1 11512.21,12412.45 11512.21,12412.45 11512.21,12412.45 11439.01,12361.41 11439.01,12361.41 11439.01,12361.41 11400.77,12334.75 11400.77,12334.75 11400.77,12334.75 11327.56,12283.71 11327.56,12283.71 11327.51,12283.71 11289.27,12257.06 11289.27,12257.06 11289.27,12257.06 11216.07,12206.08 11216.07,12206.02 11216.07,12206.02 11211.24,12202.7 11206.87,12193.88 11196.95,12174.05 11196.95,12174.05 11196.95,12174.05 11169.9,12120.01 11169.9,12120.01 11160.04,12100.18 11160.04,12100.18 11159.98,12100.18 11133,12046.14 11133,12046.09 11133,12046.09 11096.03,11972.27 11096.03,11972.22 11096.03,11972.22 11059.13,11898.41 11059.13,11898.35 11059.13,11898.35 11032.08,11844.32 11032.08,11844.32 11032.08,11844.32 10995.12,11770.45 10995.12,11770.45 10995.12,11770.45 10958.21,11696.58 10958.21,11696.58 10958.21,11696.58 10931.17,11642.49 10931.17,11642.49 10931.17,11642.49 10921.25,11622.71 10921.25,11622.71 10921.25,11622.71 10894.21,11568.62 10894.21,11568.62 10894.21,11568.62 10857.3,11494.75 10857.3,11494.75 10857.3,11494.75 10820.34,11420.88 10820.34,11420.88 10820.34,11420.88 10793.3,11366.8 10783.43,11347.01 10783.43,11347.01 10783.43,11347.01 10756.39,11292.93 10756.39,11292.93 10756.39,11292.93 10719.48,11219.06 10719.48,11219.06 10719.43,11219.06 10682.52,11145.19 10682.52,11145.19 10682.52,11145.19 10655.48,11091.1 10655.48,11091.1 10618.57,11017.29 10618.57,11017.23 10618.57,11017.23 10581.61,10943.42 10581.61,10943.36 10581.61,10943.36 10544.7,10869.55 10544.7,10869.49 10544.7,10869.49 10517.66,10815.46 10517.66,10815.46 10517.66,10815.46 10480.69,10741.59 10480.69,10741.59 10480.69,10741.59 10443.79,10667.72 10443.79,10667.72 10443.79,10667.72 10416.74,10613.64 10416.74,10613.64 10416.74,10613.64 10406.82,10593.85 10406.82,10593.85 10406.82,10593.85 10379.78,10539.77 10379.78,10539.77 10379.78,10539.77 10342.87,10465.9 10342.87,10465.9 10342.87,10465.9 10305.91,10392.03 10305.91,10392.03 10305.91,10392.03 10278.87,10337.94 10241.96,10264.07 10241.96,10264.07 10241.96,10264.07 10205,10190.2 10205,10190.2 10205,10190.2 10168.09,10116.33 10168.09,10116.33 10168.09,10116.33 10141.05,10062.25 10141.05,10062.25 10141.05,10062.25 10104.14,9988.38 10104.14,9988.38 10104.14,9988.38 10067.18,9914.51 10067.18,9914.51 10067.18,9914.51 10040.13,9860.48 10040.13,9860.48 10030.27,9840.64 10030.27,9840.64 10030.27,9840.64 10003.23,9786.61 10003.23,9786.61 10003.23,9786.61 9966.27,9712.74 9966.27,9712.68 9966.27,9712.68 9929.36,9638.87 9929.36,9638.81 9929.36,9638.81 9865.35,9510.91 9865.35,9510.91 9865.35,9510.91 9828.45,9437.04 9828.45,9437.04 9828.45,9437.04 9791.48,9363.17 9791.48,9363.17 9791.48,9363.17 9764.44,9309.08 9764.44,9309.08 9764.44,9309.08 9727.53,9235.22 9727.53,9235.22 9727.53,9235.22 9690.57,9161.35 9690.57,9161.35 9690.57,9161.35 9663.58,9107.26 9653.66,9087.48 9653.66,9087.48 9653.66,9087.48 9626.62,9033.39 9626.62,9033.39 9626.62,9033.39 9589.71,8959.52 9589.71,8959.52 9589.71,8959.52 9552.75,8885.65 9552.75,8885.65 9552.75,8885.65 9525.71,8831.56 9488.8,8757.69 9488.8,8757.69 9488.8,8757.69 9451.84,8683.82 9451.84,8683.82 9451.84,8683.82 9414.93,8610.01 9414.93,8609.95 9414.93,8609.95 9387.89,8555.92 9387.89,8555.92 9387.89,8555.92 9350.92,8482.05 9350.92,8482.05 9350.92,8482.05 9314.02,8408.18 9314.02,8408.18 9314.02,8408.18 9277.05,8334.31 9277.05,8334.31 9277.05,8334.31 9250.01,8280.23 9250.01,8280.23 9250.01,8280.23 9213.1,8206.36 9213.1,8206.36 9213.1,8206.36 9176.14,8132.49 9176.14,8132.49 9176.14,8132.49 9149.1,8078.4 9112.19,8004.53 9112.19,8004.53 9075.28,7930.66 9075.28,7930.66 9075.23,7930.66 9038.32,7856.79 9038.32,7856.79 9038.32,7856.79 8974.37,7728.84 8974.37,7728.84 8974.37,7728.84 8937.41,7654.97 8937.41,7654.97 8937.41,7654.97 8873.46,7527.07 8873.46,7527.01 8873.46,7527.01 8836.5,7453.2 8836.5,7453.14 8836.5,7453.14 8799.59,7379.33 8799.59,7379.27 8799.59,7379.27 8735.58,7251.37 8698.68,7177.5 8698.68,7177.5 8698.68,7177.5 8661.71,7103.63 8661.71,7103.63 8661.71,7103.63 8597.76,6975.68 8597.76,6975.68 8597.76,6975.68 8560.8,6901.81 8560.8,6901.81 8560.8,6901.81 8496.85,6773.85 8496.85,6773.85 8459.94,6699.98 8459.94,6699.98 8459.94,6699.98 8445.42,6671 8494.86,6572.02 8494.86,6572.02 8494.86,6572.02 8531.82,6498.16 8568.72,6424.29 8632.73,6296.38 8632.73,6296.38 8632.73,6296.33 8669.64,6222.52 8669.64,6222.52 8669.64,6222.46 8706.6,6148.65 8743.51,6074.78 8770.55,6020.69 8770.55,6020.69 8770.55,6020.69 8807.51,5946.82 8807.51,5946.82 8807.51,5946.82 8844.42,5872.95 8844.42,5872.95 8844.42,5872.95 8881.38,5799.08 8945.33,5671.12 8945.33,5671.12 8945.33,5671.12 8982.24,5597.25 8982.24,5597.25 8982.24,5597.25 9019.2,5523.38 9019.2,5523.38 9019.2,5523.38 9083.15,5395.43 9083.15,5395.43 9083.15,5395.43 9120.12,5321.56 9120.12,5321.56 9120.12,5321.56 9157.02,5247.69 9157.02,5247.69 9157.02,5247.69 9193.99,5173.82 9193.99,5173.82 9193.99,5173.82 9221.03,5119.73 9221.03,5119.73 9221.03,5119.73 9257.94,5045.86 9257.94,5045.86 9257.94,5045.86 9294.9,4971.99 9294.9,4971.99 9294.9,4971.99 9331.81,4898.12 9331.81,4898.12 9331.81,4898.12 9358.85,4844.09 9358.85,4844.09 9358.85,4844.04 9368.77,4824.25 9368.77,4824.25 9368.77,4824.25 9395.76,4770.22 9395.81,4770.22 9395.81,4770.17 9405.68,4750.38 9405.68,4750.38 9405.68,4750.38 9432.72,4696.35 9432.72,4696.35 9432.72,4696.3 9469.63,4622.48 9469.68,4622.48 9469.68,4622.43 9496.67,4568.4 9496.67,4568.4 9496.67,4568.34 9506.59,4548.61 9506.59,4548.61 9506.59,4548.56 9533.63,4494.53 9533.63,4494.53 9533.63,4494.53 9543.5,4474.74 9543.5,4474.74 9543.5,4474.69 9570.54,4420.66 9570.54,4420.66 9570.54,4420.66 9580.46,4400.87 9580.46,4400.87 9580.46,4400.82 9607.5,4346.79 9607.5,4346.79 9607.5,4346.79 9634.54,4292.7 9634.54,4292.7 9634.54,4292.7 9644.41,4272.92 9644.41,4272.92 9644.41,4272.92 9671.45,4218.83 9671.45,4218.83 9671.45,4218.83 9681.37,4199.05 9681.37,4199.05 9681.37,4199.05 9708.41,4144.96 9708.41,4144.96 9708.41,4144.96 9718.28,4125.18 9718.28,4125.18 9718.28,4125.18 9745.32,4071.09 9745.32,4071.09 9745.32,4071.09 9755.24,4051.31 9755.24,4051.31 9755.24,4051.31 9772.36,4017.01 9772.36,4017.01 9772.36,4017.01 9782.28,3997.22 9782.28,3997.22 9782.28,3997.22 9809.27,3943.14 9809.33,3943.14 9809.33,3943.14 9819.19,3923.35 9819.19,3923.35 9819.19,3923.35 9846.23,3869.27 9846.23,3869.27 9846.23,3869.27 9856.15,3849.48 9856.15,3849.48 9856.15,3849.48 9883.14,3795.4 9883.2,3795.4 9883.2,3795.4 9893.06,3775.61 9893.06,3775.61 9893.06,3775.61 9920.1,3721.53 9920.1,3721.53 9920.1,3721.53 9930.02,3701.74 9930.02,3701.74 9930.02,3701.74 9947.15,3667.5 9947.15,3667.5 9947.15,3667.44 9957.01,3647.66 9957.07,3647.66 9957.07,3647.66 9984.05,3593.63 9984.11,3593.63 9984.11,3593.57 9993.97,3573.79 9993.97,3573.79 9993.97,3573.79 10021.02,3519.7 10021.02,3519.7 10021.02,3519.7 10030.88,3499.92 10030.94,3499.92 10030.94,3499.92 10057.92,3445.83 10057.98,3445.83 10057.98,3445.83 10067.84,3426.05 10067.84,3426.05 10067.84,3426.05 10084.97,3391.8 10084.97,3391.8 10084.97,3391.75 10094.89,3371.96 10094.89,3371.96 10094.89,3371.96 10104.75,3352.18 10104.75,3352.18 10104.75,3352.18 10113.17,3335.44 10114.67,3338.49 10114.67,3338.49 10114.67,3338.49 10141.71,3392.52 10151.58,3412.31 10151.58,3412.36 10151.63,3412.36 10178.62,3466.39 10178.62,3466.39 10178.62,3466.39 10188.54,3486.18 10188.54,3486.23 10188.54,3486.23 10215.58,3540.26 10215.58,3540.32 10215.58,3540.32 10252.49,3614.13 10252.49,3614.19 10252.49,3614.19 10279.53,3668.22 10289.45,3688 10289.45,3688.06 10289.45,3688.06 10316.5,3742.09 10316.5,3742.09 10316.5,3742.09 10326.36,3761.87 10326.36,3761.93 10326.36,3761.93 10353.4,3815.96 10353.4,3815.96 10353.4,3815.96 10390.37,3889.83 10390.37,3889.83 10390.37,3889.83 10427.27,3963.7 10427.27,3963.7 10427.27,3963.7 10454.32,4017.78 10454.32,4017.78 10454.32,4017.78 10464.23,4037.57 10464.23,4037.57 10464.23,4037.57 10491.28,4091.65 10491.28,4091.65 10491.28,4091.65 10528.19,4165.52 10528.19,4165.52 10528.19,4165.52 10565.15,4239.39 10565.15,4239.39 10565.15,4239.39 10592.19,4293.48 10592.19,4293.48 10602.05,4313.26 10602.05,4313.26 10602.05,4313.26 10629.1,4367.35 10629.1,4367.35 10629.1,4367.35 10666.06,4441.22 10666.06,4441.22 10666.06,4441.22 10702.97,4515.09 10702.97,4515.09 10702.97,4515.09 10730.01,4569.17 10730.01,4569.17 10739.87,4588.96 10739.87,4588.96 10739.93,4588.96 10766.92,4643.04 10766.92,4643.04 10766.92,4643.04 10803.88,4716.91 10803.88,4716.91 10803.88,4716.91 10840.79,4790.73 10840.79,4790.78 10840.79,4790.78 10867.83,4844.81 10877.75,4864.6 10877.75,4864.65 10877.75,4864.65 10904.79,4918.68 10904.79,4918.68 10904.79,4918.68 10941.7,4992.55 10941.7,4992.55 10941.7,4992.55 10978.66,5066.42 10978.66,5066.42 10978.66,5066.42 11005.71,5120.51 11015.57,5140.29 11015.57,5140.35 11015.57,5140.35 11042.61,5194.38 11042.61,5194.38 11042.61,5194.38 11079.58,5268.25 11079.58,5268.25 11079.58,5268.25 11116.48,5342.12 11116.48,5342.12 11116.48,5342.12 11153.45,5415.99 11153.45,5415.99 11153.45,5415.99 11217.4,5543.94 11217.4,5543.94 11217.4,5543.94 11254.36,5617.81 11254.36,5617.81 11254.36,5617.81 11291.27,5691.68 11291.27,5691.68 11291.27,5691.68 11318.31,5745.77 11318.31,5745.77 11318.31,5745.77 11355.22,5819.64 11355.22,5819.64 11355.22,5819.64 11392.18,5893.51 11392.18,5893.51 11392.18,5893.51 11429.09,5967.38 11429.09,5967.38 11429.09,5967.38 11493.09,6095.34 11493.09,6095.34 11493.09,6095.34 11530,6169.15 11530,6169.2 11530,6169.2 11566.96,6243.02 11566.96,6243.07 11566.96,6243.07 11594,6297.11 11630.91,6370.98 11630.91,6370.98 11667.87,6444.84 11667.87,6444.84 11667.87,6444.84 11704.78,6518.71 11704.78,6518.71 11704.78,6518.71 11768.79,6646.67 11768.79,6646.67 11768.79,6646.67 11805.69,6720.54 11805.69,6720.54 11805.69,6720.54 11842.6,6794.41 11842.6,6794.41 11842.66,6794.41 11879.56,6868.28 11879.56,6868.28 11879.56,6868.28 11906.61,6922.37 11906.61,6922.37 11906.61,6922.37 11943.51,6996.24 11943.51,6996.24 11943.51,6996.24 11980.48,7070.11 11980.48,7070.11 11980.48,7070.11 12017.38,7143.98 12017.38,7143.98 12017.38,7143.98 12044.43,7198.06 12044.43,7198.06 12044.43,7198.06 12081.39,7271.93 12081.39,7271.93 12081.39,7271.93 12118.3,7345.8 12118.3,7345.8 12118.3,7345.8 12155.26,7419.67 12155.26,7419.67 12155.26,7419.67 12182.3,7473.76 12219.21,7547.63 12219.21,7547.63 12256.17,7621.44 12256.17,7621.5 12256.17,7621.5 12293.08,7695.31 12293.08,7695.37 12293.08,7695.37 12357.08,7823.27 12357.08,7823.27 12357.08,7823.27 12393.99,7897.14 12393.99,7897.14 12393.99,7897.14 12430.9,7971.01 12430.9,7971.01 12430.95,7971.01 12494.9,8098.96 12531.81,8172.83 12531.81,8172.83 12531.81,8172.83 12568.77,8246.7 12568.77,8246.7 12568.77,8246.7 12632.72,8374.66 12632.72,8374.66 12632.72,8374.66 12669.69,8448.53 12669.69,8448.53 12669.69,8448.53 12706.59,8522.4 12706.59,8522.4 12706.59,8522.4 12807.51,8724.22 12807.51,8724.22 12807.51,8724.22 12844.47,8798.09 12844.47,8798.09 12844.47,8798.09 12908.42,8925.99 12945.33,8999.86 12945.33,8999.86 12982.29,9073.73 12982.29,9073.79 12982.29,9073.79 13083.2,9275.56 13083.2,9275.56 13083.2,9275.56 13120.11,9349.43 13120.11,9349.43 13120.11,9349.43 13221.02,9551.25 13257.99,9625.12 13257.99,9625.12 13257.99,9625.12 13395.81,9900.82 13395.81,9900.82 13395.81,9900.82 13496.72,10102.64 13533.63,10176.51 13533.63,10176.51 13533.68,10176.51 13570.59,10250.38 13570.59,10250.38 13570.59,10250.38 13671.5,10452.15 13671.5,10452.15 13671.5,10452.15 13708.41,10526.02 13708.41,10526.02 13708.41,10526.02 13809.32,10727.85 13846.28,10801.72 13846.28,10801.72 13846.28,10801.72 13947.2,11003.54 13947.2,11003.54 13947.2,11003.54 13984.1,11077.41 13984.1,11077.41 13984.1,11077.41 14121.92,11353.11 14121.92,11353.11 14121.92,11353.11 14222.84,11554.94 14222.84,11554.94 14259.8,11628.81 14259.8,11628.81 14259.8,11628.81 14397.62,11904.45 14535.49,12180.14 14572.4,12254.01 14572.4,12254.01 14572.4,12254.01 14710.22,12529.71 14710.22,12529.71 14710.22,12529.71 14848.1,12805.4 14848.1,12805.4 14848.1,12805.4 14985.92,13081.04 14985.92,13081.1 14985.92,13081.1 15086.83,13282.87 15123.79,13356.74 15261.61,13632.43 15261.61,13632.43 15261.61,13632.43 16330.65,15770.5 "/>
  <path class="fil1" d="M13547.48 16877.44l0 0 0 0 -1.27 -2.22 0 -0.06 -0.06 0 -1.27 -2.22 0 -0.11 -0.06 0 -1.27 -2.11 0 -0.17 -0.11 0 -1.22 -2.11 0 -0.17 -0.11 0 -1.22 -2.05 0 -0.22 -0.11 0 -1.16 -2.05 0 -0.22 -0.17 0 -1.16 -1.99 0 -0.33 -0.17 0 -3.16 -5.32 0 0 0 0 -1.33 -2.22 0 -0.06 0 0 -1.27 -2.22 0 -0.06 -0.06 0 -1.27 -2.16 0 -0.17 -0.06 0 -1.27 -2.11 0 -0.17 -0.11 0 -1.22 -2.11 0 -0.17 -0.11 0c-2.38,-4.05 -4.77,-8.15 -7.15,-12.19l0 0 0 0 -1.27 -2.22 0 -0.06 -0.06 0 -1.27 -2.22 0 -0.06 -0.06 0c-3.77,-6.32 -7.43,-12.75 -11.19,-19.01l0 -0.06 0 0c-33.14,-55.69 -67,-110.78 -101.52,-165.25l0 0 0 0c-17.68,-27.82 -35.47,-55.53 -53.42,-83.01l0 0 0 0c-13.52,-20.67 -27.21,-41.17 -40.9,-61.68l0 0 0 0c-30.53,-45.66 -61.51,-90.83 -92.99,-135.55l0 0 0 0c-1.99,-2.83 -3.99,-5.6 -5.93,-8.37l0 0 -0.06 0c-14.19,-20.17 -28.43,-40.23 -42.84,-60.18l0 0c-97.92,-135.49 -200.22,-266.55 -306.67,-392.96l0 0 0 0c-25.93,-30.76 -52.09,-61.18 -78.47,-91.38 -62.68,-71.71 -126.63,-141.75 -191.96,-210.19l0 0 0 0c-31.37,-32.86 -63.01,-65.39 -94.98,-97.48l0 0 0 0c-37.18,-37.35 -74.76,-74.15 -112.77,-110.44l0 0 0 0c-74.15,-70.82 -149.79,-139.65 -226.87,-206.37l0 0 0 0c-54.25,-46.99 -109.17,-92.99 -164.86,-137.88l0 0 0 0c-7.92,-6.32 -15.79,-12.69 -23.72,-19.01 -84.62,-67.5 -170.85,-132.44 -258.57,-194.95l0 0c-70.71,-50.43 -142.36,-99.19 -215.01,-146.24l0 0 0 0c-15.35,-9.92 -30.7,-19.89 -46.16,-29.7l0 0 0 0c-43.83,-27.82 -88.06,-54.92 -132.56,-81.46 -12.3,-7.37 -24.55,-14.85 -36.91,-22.11l0 0 0 0c-3.55,-2.05 -7.04,-4.05 -10.58,-6.1l0 0 -1.33 -0.72 0 0 0 0c-74.31,-43.39 -149.51,-85.06 -225.54,-124.91 -116.54,-61.12 -235.08,-118.04 -355.49,-170.57l0 0 0 0c-5.87,-2.6 -11.86,-5.1 -17.79,-7.65l0 0 0 0c-5.93,-2.55 -11.86,-5.04 -17.79,-7.59l0 0 0 0c-5.93,-2.55 -11.86,-5.1 -17.84,-7.65l0 0 0 0c-5.93,-2.49 -11.86,-5.1 -17.79,-7.59l0 0c-16.02,-6.71 -32.09,-13.24 -48.16,-19.84l-11.19 -4.54c-3.77,-1.5 -7.48,-3.05 -11.19,-4.54l0 0 -0.06 0c-3.71,-1.55 -7.43,-3.1 -11.19,-4.6l0 0 0 0c-29.76,-11.91 -59.68,-23.61 -89.66,-35.02l0 0c-33.53,-12.75 -67.16,-25.21 -100.91,-37.3l0 0 0 0c-18.18,-6.54 -36.52,-12.75 -54.75,-19.06l0 0 0 0c-105.9,-36.57 -212.96,-69.88 -321.19,-99.75l0 0 0 0c-57.74,-15.96 -115.76,-30.98 -174.12,-44.94l0 0 0 0c-52.09,-12.47 -104.4,-24.11 -156.94,-35.02l0 0 -0.06 0c-42.89,-8.92 -86.01,-17.29 -129.23,-25.16l0 0c-10.09,-1.83 -20.23,-3.55 -30.37,-5.32l0 0 0 0c-98.36,-17.23 -197.56,-31.7 -297.42,-43.39l0 0 0 0c-20.67,-2.44 -41.29,-4.71 -62.01,-6.87l0 0 0 0c-12.52,-1.33 -25.05,-2.55 -37.57,-3.82l0 0 0 0c-52.59,-5.1 -105.35,-9.37 -158.27,-12.91l0 0 -0.06 0c-3.93,-0.28 -7.92,-0.5 -11.86,-0.78l0 0c-91.99,-5.98 -184.59,-9.42 -277.63,-10.53l0 -0.11 -11.75 0c-16.51,-0.22 -33.03,-0.5 -49.6,-0.5l-2783 0 76.31 -152.62 0 0 0 0 110.78 -221.61 0 0 0 0 36.96 -73.87 0 0 0 0 36.91 -73.87 0 0 0 0 36.96 -73.87 0 0 0 0 36.91 -73.87 0 0 0 0 36.96 -73.87 36.91 -73.87 0 0 0 0 73.87 -147.74 36.96 -73.87 0 0 0 0 73.87 -147.74 396.34 -792.78 0 0 0 0 110.83 -221.61 0 0 0 0 36.91 -73.87 0 0 0 0 36.96 -73.87 0 0 0 0 36.91 -73.87 36.96 -73.87 0 0 0 0 36.91 -73.87 0 0 0 0 36.96 -73.87 0 0 36.91 -73.87 0 0 0 0 73.87 -147.74 0 0 243.5 -487 1090.15 0 16.4 0c22.67,0 45.33,0.06 67.94,0.28l0 0.06 8.09 0c18.23,0.22 36.41,0.44 54.53,0.72l0 0.06 2.55 0c10.14,0.17 20.28,0.39 30.48,0.61l0 0.17 8.81 0c8.04,0.17 16.07,0.39 24.16,0.55l0 0.22 7.65 0c8.42,0.22 16.85,0.44 25.33,0.66l0 0.06 2.05 0c7.43,0.22 14.91,0.5 22.33,0.72l0 0.06 2.11 0c5.87,0.22 11.8,0.39 17.68,0.61l0 0.17 4.77 0 15.02 0.55 0 0.22 5.76 0c4.71,0.17 9.37,0.33 14.02,0.55l0 0.17 5.04 0c4.93,0.22 9.86,0.39 14.74,0.61l0 0.17 3.66 0c5.38,0.22 10.75,0.5 16.13,0.72l0 0.06 1 0 16.18 0.72 0 0.06 0.28 0 13.58 0.61 0 0.11 2.27 0 11.58 0.61 0 0.17 3.49 0 10.97 0.55 0 0.22 3.66 0 10.2 0.55 0 0.22 3.82 0 10.7 0.55 0 0.17 2.94 0 10.92 0.61 0 0.17 2.38 0 12.14 0.72 0 0.06 0.61 0c7.92,0.44 15.85,0.94 23.77,1.44l0 0.06 0.89 0 10.36 0.66 0 0.11 1.66 0 8.87 0.55 0 0.22 2.72 0 8.48 0.55 0 0.22 2.83 0 8.42 0.55 0 0.17 2.88 0 7.65 0.55 0 0.22 3.05 0 8.15 0.55 0 0.22 2.55 0 8.7 0.61 0 0.11 1.94 0 8.59 0.66 0 0.11 1.5 0 9.7 0.72 0 0.06 0.44 0c6.48,0.5 12.91,1 19.34,1.5l0 0 0.33 0 8.26 0.66 0 0.11 1.44 0 7.81 0.61 0 0.17 1.72 0 7.48 0.61 0 0.17 1.72 0 6.87 0.55 0 0.17 2.33 0 6.93 0.61 0 0.17 2.27 0 6.93 0.61 0 0.17 1.88 0 6.71 0.55 0 0.22 2.11 0 7.15 0.61 0 0.11 1.61 0 6.93 0.61 0 0.17 1.66 0 7.59 0.66 0 0.11 0.83 0 8.42 0.78 0 0c5.49,0.5 10.97,1 16.46,1.5l0 0 0 0 7.26 0.66 0 0.11 0.83 0 7.09 0.66 0 0.11 1 0 6.26 0.55 0 0.17 1.66 0 6.26 0.61 0 0.17 1.5 0 5.76 0.55 0 0.22 1.99 0 5.87 0.55 0 0.22 1.88 0 5.38 0.5 0 0.22 2.22 0 5.71 0.61 0 0.17 1.77 0 6.15 0.61 0 0.17 1.27 0 5.98 0.61 0 0.17 1.5 0 6.43 0.66 0 0.06 0.89 0 6.37 0.66 0 0.11 0.78 0 7.09 0.78 0 0 0.11 0 7.15 0.72 0 0 0.06 0c4.6,0.5 9.2,1.05 13.8,1.55l0 0 0.17 0 6.43 0.72 0 0.06 0.55 0 6.04 0.66 0 0.06 0.89 0 5.71 0.66 0 0.11 1.16 0 5.43 0.61 0 0.17 1.27 0 5.32 0.61 0 0.17 1.39 0 5.21 0.55 0 0.17 1.5 0 5.1 0.61 0 0.17 1.55 0 5.04 0.61 0 0.17 1.5 0 5.1 0.61 0 0.17 1.39 0 5.21 0.61 0 0.11 1.27 0 5.32 0.66 0 0.11 1.16 0 5.43 0.66 0 0.11 1 0 5.6 0.66 0 0.11 0.66 0 5.93 0.72 0 0 0.33 0c8.26,1 16.51,2.05 24.77,3.05l0 0 0 0 5.93 0.78 0 0 0.17 0 5.76 0.72 0 0.06 0.33 0 4.93 0.61 0 0.17 1.11 0 4.82 0.61 0 0.11 1.11 0 4.82 0.61 0 0.17 1.11 0 4.82 0.61 0 0.17 1.05 0 4.93 0.61 0 0.17 1 0 4.27 0.5 0 0.22 1.61 0 4.32 0.55 0 0.22 1.44 0 4.49 0.61 0 0.17 1.27 0 4.65 0.61 0 0.11 1.05 0 4.88 0.66 0 0.11 0.83 0 4.43 0.61 0 0.17 1.27 0 4.71 0.61 0 0.17 0.94 0 4.99 0.66 0 0.06 0.55 0 5.38 0.78 0 0 0.22 0 10.97 1.5 0 0.06 0.11 0c7.2,1 14.46,1.99 21.67,2.99l0 0.06 0.06 0 4.54 0.61 0 0.11 0.89 0 4.38 0.66 0 0.11 1.05 0 4.27 0.61 0 0.17 1 0 4.27 0.61 0 0.17 1 0 4.27 0.61 0 0.11 1 0 4.27 0.66 0 0.11 1 0 4.27 0.61 0 0.17 1 0 4.32 0.61 0 0.17 0.89 0 3.71 0.55 0 0.17 1.39 0 3.88 0.61 0 0.17 1.27 0 3.99 0.61 0 0.17 1.11 0 4.21 0.61 0 0.17 0.94 0 4.32 0.61 0 0.11 0.78 0 4.49 0.66 0 0.11 0.55 0 4.71 0.72 0 0.06 0.28 0 4.99 0.78 0 0 4.65 0.66 0 0.06 0.39 0 4.88 0.78 0 0 0.06 0 9.81 1.5 0 0.06 0.11 0c4.82,0.72 9.64,1.5 14.41,2.22l0 0.06 0.22 0 4.43 0.66 0 0.06 0.44 0 4.16 0.66 0 0.11 0.66 0 3.93 0.61 0 0.17 0.89 0 3.71 0.61 0 0.17 1 0 3.66 0.55 0 0.17 1.11 0 3.49 0.61 0 0.17 1.27 0 3.99 0.66 0 0.11 0.78 0 3.88 0.61 0 0.17 0.89 0 3.71 0.61 0 0.11 0.94 0 3.66 0.61 0 0.17 1 0 3.66 0.61 0 0.17 0.94 0 3.66 0.61 0 0.17 1 0 3.6 0.55 0 0.17 1.05 0 3.55 0.61 0 0.17 1.05 0 4.27 0.72 0 0.06 0.33 0 4.27 0.72 0 0.06 0.28 0 4.32 0.72 0 0 0.22 0 4.43 0.78 0 0 0.11 0 4.49 0.78 0 0 0 0c5.93,1 11.86,1.99 17.79,2.99l0 0.06 0.17 0 8.42 1.44 0 0.06 0.44 0 4.16 0.72 0 0.06 0.28 0 3.71 0.66 0 0.11 0.66 0 3.93 0.66 0 0.11 0.44 0 3.49 0.61 0 0.11 0.89 0 3.77 0.66 0 0.11 0.55 0 3.38 0.61 0 0.17 0.94 0 3.66 0.61 0 0.11 0.66 0 3.32 0.61 0 0.17 1 0 3.6 0.66 0 0.11 0.72 0 3.27 0.55 0 0.22 1 0 3.6 0.61 0 0.11 0.66 0 3.27 0.61 0 0.17 0.94 0 3.71 0.66 0 0.11 0.55 0 3.38 0.61 0 0.17 0.83 0 3.77 0.66 0 0.06 0.44 0 3.55 0.66 0 0.11 0.72 0 3.88 0.72 0 0.06 0.28 0 3.66 0.66 0 0.11 0.5 0 4.16 0.72 0 0 3.93 0.78 0 0 0.17 0c12.08,2.22 24.11,4.43 36.13,6.71l0 0.17 0.72 0 3.21 0.61 0 0.17 0.83 0 3.16 0.55 0 0.17 0.83 0 3.1 0.61 0 0.17 0.89 0 3.05 0.61 0 0.17 0.89 0 3.1 0.55 0 0.22 0.89 0 3.05 0.55 0 0.17 0.94 0 3.05 0.61 0 0.17 0.94 0 2.99 0.55 0 0.22 1 0 2.94 0.55 0 0.17 1 0 2.99 0.61 0 0.17 0.89 0 3.05 0.61 0 0.17 0.83 0 3.16 0.61 0 0.17 0.78 0 3.16 0.61 0 0.11 0.72 0 3.21 0.66 0 0.11 0.66 0 3.32 0.66 0 0.11 0.61 0 3.32 0.66 0 0.11 0.55 0 3.44 0.66 0 0.06 0.39 0 3.55 0.72 0 0.06 0.28 0 3.66 0.78 0 0 0.17 0c6.32,1.27 12.63,2.49 19.01,3.77l0 0.06 0.06 0 11.14 2.27 0 0 0.06 0 7.2 1.44 0 0.06 0.28 0 3.66 0.78 0 0 0.11 0 3.21 0.66 0 0.11 0.5 0 3.44 0.72 0 0.06 0.28 0 3.05 0.61 0 0.11 0.61 0 3.32 0.72 0 0.06 0.39 0 2.94 0.61 0 0.17 0.72 0 3.21 0.66 0 0.11 0.44 0 2.88 0.55 0 0.17 0.83 0 3.1 0.66 0 0.11 0.55 0 2.72 0.55 0 0.22 1 0 2.99 0.61 0 0.17 0.61 0 2.66 0.55 0 0.17 0.94 0 3.05 0.66 0 0.11 0.55 0 2.72 0.55 0 0.22 0.89 0 3.1 0.66 0 0.11 0.5 0 2.77 0.55 0 0.17 0.83 0 3.16 0.66 0 0.11 0.44 0 2.83 0.61 0 0.17 0.78 0 3.16 0.66 0 0.06 0.39 0 2.94 0.66 0 0.11 0.61 0 3.32 0.72 0 0.06 0.22 0 7.04 1.5 0 0 0.06 0c8.09,1.77 16.24,3.55 24.38,5.32l0 0.06 0.11 0 3.16 0.66 0 0.06 0.33 0 2.99 0.66 0 0.11 0.5 0 3.44 0.78 0 0 0.06 0 3.27 0.72 0 0.06 0.17 0 3.1 0.66 0 0.06 0.33 0 2.99 0.66 0 0.11 0.44 0 2.83 0.66 0 0.11 0.61 0 2.72 0.61 0 0.17 0.66 0 2.6 0.55 0 0.17 0.83 0 3.16 0.72 0 0.06 0.22 0 3.05 0.66 0 0.11 0.39 0 2.94 0.61 0 0.17 0.5 0 2.77 0.61 0 0.11 0.61 0 2.72 0.61 0 0.17 0.66 0 2.6 0.61 0 0.17 0.72 0 2.6 0.55 0 0.22 0.78 0 2.49 0.55 0 0.17 0.83 0 3.1 0.72 0 0.06 0.28 0 3.05 0.72 0 0.06 0.28 0 2.99 0.66 0 0.06 0.39 0 2.94 0.72 0 0.06 0.39 0 2.94 0.66 0 0.11 0.39 0 2.88 0.66 0 0.11 0.44 0 2.88 0.66 0 0.06 0.39 0c11.97,2.77 23.94,5.54 35.85,8.37l0 0.06 0.17 0 3.16 0.72 0 0 0.06 0 3.21 0.78 0 0 0.06 0 12.47 2.94 0 0.11 0.39 0 2.94 0.72 0 0.06 0.22 0 3.05 0.72 0 0.06 0.17 0 3.16 0.72 0 0 0 0c4.21,1 8.37,1.99 12.52,2.99l0 0.06 0.28 0 2.99 0.78 0 0 0.11 0c17.62,4.27 35.24,8.59 52.87,12.97 325.02,80.85 643.38,182.37 954.16,303.07 57.85,22.5 115.49,45.5 172.79,69.33l0 0 0 0c85.06,35.3 169.41,72.21 253.25,110.39l0 0 0 0c132.61,60.46 263.67,124.46 393.07,191.96 733.32,382.37 1413.61,876.3 2024.74,1462.93l0 0 0 0c101.08,96.98 200.27,196.51 297.47,298.53l0 0 0 0c182.76,191.8 358.54,392.29 526.95,600.88 176.06,218.01 343.97,444.94 503.23,680.07 110.83,163.64 217.51,331.22 319.7,502.62l40.4 80.74 952.55 1905.1 -3335.5 0c-2.6,-4.49 -5.26,-8.92 -7.87,-13.41z"/>
  <path class="fil2" d="M41.73 16807.39l0 0 0 0 137.88 -275.7 0 0 137.82 -275.7 0 0 0 0 100.91 -201.83 0 0 0 0 137.82 -275.7 0 0 0 0 36.96 -73.87 0 0 100.91 -201.77 0 0 0 0 137.82 -275.7 0 0 36.91 -73.87 64.01 -127.96 0 0 0 0 36.91 -73.87 0 0 0 0 36.96 -73.87 63.95 -127.96 0 0 0 0 36.96 -73.87 0 0 0 0 100.91 -201.77 0 0 0 -0.06 36.91 -73.81 0 0 0 0 100.91 -201.83 0 0 0 0 36.91 -73.87 0 0 0 0 64.01 -127.96 0 0 0 0 36.91 -73.87 0 0 0 0 100.91 -201.83 0 0 0 0 36.96 -73.87 0 0 0 0 36.91 -73.87 0 0 0 0 64.01 -127.96 0 0 0 0 36.91 -73.87 0 0 0 0 100.91 -201.77 0 0 0 0 36.91 -73.87 0 0 0 0 36.96 -73.87 0 0 27.04 -54.09 0 0 0 0 36.91 -73.87 0 0 0 0 36.96 -73.87 0 0 0 0 63.95 -127.96 0 0 0 0 36.96 -73.87 0 0 0 0 36.91 -73.87 0 0 36.96 -73.87 27.04 -54.09 0 0 0 0 36.91 -73.87 0 0 0 0 36.96 -73.87 0 0 0 0 36.91 -73.87 27.04 -54.03 0 0 0 -0.06 36.91 -73.81 0 0 0 -0.06 36.96 -73.81 0 0 0 -0.06 27.04 -54.03 0 0 0 0 36.91 -73.87 0 0 0 0 36.96 -73.87 0 0 0 0 36.91 -73.87 27.04 -54.09 0 0 0 0 36.96 -73.87 0 0 0 0 36.91 -73.87 0 0 0 0 36.96 -73.87 0 0 0 0 27.04 -54.09 0 0 0 0 36.91 -73.87 0 0 0 0 36.96 -73.87 0 0 0 0 63.95 -127.96 0 0 0 0 36.91 -73.87 0.06 0 0 0 36.91 -73.87 0 0 0 0 27.04 -54.03 0 0 0 -0.06 9.86 -19.78 0 0 0 0 27.04 -54.03 0 0 0 -0.06 36.96 -73.81 0 0 0 0 36.91 -73.87 0 0 0 0 27.04 -54.09 0 0 0 0 36.96 -73.87 0 0 0 0 36.91 -73.87 0 0 0 0 36.96 -73.87 0 0 0 0 27.04 -54.09 0 0 0 0 9.86 -19.78 0 0 27.04 -54.09 0 0 0 0 36.96 -73.87 0 0 0 0 36.91 -73.87 0 0 0 0 27.04 -54.09 0 0 0 0 36.91 -73.87 0.06 0 0 0 36.91 -73.87 0 0 0 0 27.04 -54.03 0 0 0 -0.06 9.86 -19.78 0 0 27.04 -54.03 0 0 0 -0.06 9.92 -19.78 27.04 -54.03 0 0 0 -0.06 36.91 -73.81 0 0 0 -0.06 27.04 -54.03 0 0 0 -0.06 9.92 -19.78 0 0 0 0 27.04 -54.03 0 0 0 0 9.86 -19.84 27.04 -54.03 0 0 0 0 36.96 -73.87 0 0 0 0 27.04 -54.09 0 0 0 0 9.86 -19.78 0 0 0 0 27.04 -54.09 0 0 0 0 36.96 -73.87 0 0 0 0 36.91 -73.87 0 0 0 0 27.04 -54.09 0 0 0 0 9.92 -19.78 0 0 26.99 -54.09 0.06 0 0 0 9.86 -19.78 27.04 -54.09 0 0 0 0 36.91 -73.87 0.06 0 0 0 26.99 -54.09 0 0 0 0 9.92 -19.78 0 0 0 0 27.04 -54.09 0 0 0 0 36.91 -73.87 0 0 0 0 27.04 -54.03 0 0 0 -0.06 9.92 -19.78 0 0 0 0 27.04 -54.03 0 0 0 -0.06 9.86 -19.78 27.04 -54.03 0 0 0 -0.06 36.96 -73.81 0 0 0 -0.06 27.04 -54.03 0 0 0 0 9.86 -19.78 0 0 0 -0.06 27.04 -54.03 0 0 0 0 9.92 -19.78 0 0 0 0 27.04 -54.09 0 0 0 0 36.91 -73.87 0 0 0 0 27.04 -54.09 0 0 0 0 9.92 -19.78 0 0 0 0 26.99 -54.09 0.06 0 0 0 36.91 -73.87 0 0 0 0 36.91 -73.87 0.06 0 0 0 26.99 -54.09 0.06 0 0 0 9.86 -19.78 0 0 0 0 27.04 -54.09 0 0 0 0 9.92 -19.78 0 0 26.99 -54.09 0 0 0 0 27.04 -54.03 0 0 0 -0.06 9.92 -19.78 0 0 0 0 27.04 -54.03 0 0 0 -0.06 9.86 -19.78 0 0 0 0 27.04 -54.09 0 0 0 0 36.96 -73.87 0 0 0 0 27.04 -54.03 0 0 0 -0.06 9.86 -19.78 0 0 0 0 27.04 -54.03 0 0 0 -0.06 9.92 -19.78 0 0 0 0 27.04 -54.03 0 0 0 -0.06 36.91 -73.81 0 0 0 -0.06 27.04 -54.03 0 0 0 0 9.92 -19.78 0 0 0 0 26.99 -54.09 0.06 0 0 0 9.86 -19.78 0 0 0 0 27.04 -54.09 0 0 0 0 9.92 -19.78 0 0 27.04 -54.09 0 0 0 0 26.99 -54.09 0.06 0 0 0 9.86 -19.78 0 0 0 0 27.04 -54.09 0 0 0 0 9.92 -19.78 0 0 0 0 26.99 -54.09 0 0 0 0 27.04 -54.09 0 0 0 0 9.92 -19.78 0 0 0 0 27.04 -54.09 0 0 0 0 9.86 -19.78 0 0 0 0 27.04 -54.09 0 0 0 0 9.92 -19.78 0 0 27.04 -54.09 0 0 0 0 9.86 -19.78 27.04 -54.09 0 0 0 0 27.04 -54.03 0 0 0 -0.06 9.92 -19.78 0 0 0 0 27.04 -54.03 0 0 0 -0.06 9.86 -19.78 0 0 0 0 27.04 -54.03 0 0 0 -0.06 27.04 -54.03 0 0 0 -0.06 9.92 -19.73 0 0 0 -0.06 26.99 -54.03 0.06 0 0 -0.06 9.86 -19.73 0 0 0 -0.06 27.04 -54.03 0 0 0 -0.06 9.92 -19.73 27.04 -54.09 0 0 0 0 26.99 -54.09 0.06 0 0 0 9.86 -19.78 0 0 0 0 27.04 -54.09 0 0 0 0 9.92 -19.78 0 0 0 0 26.99 -54.09 0.06 0 0 0 9.86 -19.78 0 0 0 0 27.04 -54.09 0 0 0 0 27.04 -54.09 0 0 0 0 9.86 -19.78 0 0 0 0 27.04 -54.09 0 0 0 0 9.92 -19.78 0 0 0 0 27.04 -54.09 0 0 0 0 27.04 -54.03 0 0 0 -0.06 9.86 -19.78 0 0 0 0 27.04 -54.03 0 0 0 -0.06 9.92 -19.78 0 0 0 0 27.04 -54.09 0 0 0 0 9.86 -19.78 0 0 0 0 27.04 -54.09 0 0 0 0 27.04 -54.03 0 0 0 -0.06 9.92 -19.78 0 0 0 0 27.04 -54.03 0 0 0 -0.06 9.86 -19.78 0 0 0 0 27.04 -54.03 0 0 0 -0.06 9.92 -19.78 0 0 0 0 27.04 -54.03 0 0 0 -0.06 26.99 -54.03 0.06 0 0 0 9.86 -19.78 0 0 0 -0.06 27.04 -54.03 0 0 0 0 9.92 -19.78 0 0 0 0 26.99 -54.09 0.06 0 0 0 9.86 -19.78 0 0 0 0 27.04 -54.09 0 0 0 0 27.04 -54.09 0 0 0 0 9.86 -19.78 0 0 0 0 27.04 -54.09 0 0 0 0 9.92 -19.78 0 0 0 0 27.04 -54.09 0 0 0 0 9.86 -19.78 0 0 0 0 17.18 -34.3 0 0 0 0 9.86 -19.78 0 0 0 0 9.92 -19.78 0 0 17.12 -34.3 0 0 0 0 9.92 -19.78 0 0 0 0 27.04 -54.09 0 0 0 0 9.86 -19.78 0 0 0 0 27.04 -54.09 0 0 0 0 9.92 -19.78 0 0 0 0 17.12 -34.25 0 0 0 -0.06 9.92 -19.78 0 0 0 0 27.04 -54.03 0 0 0 -0.06 9.86 -19.78 0 0 0 0 27.04 -54.03 0 0 0 -0.06 9.92 -19.78 0 0 0 0 27.04 -54.03 0 0 0 -0.06 9.86 -19.78 0 0 17.12 -34.25 0.06 0 0 -0.06 9.86 -19.73 0 0 0 -0.06 9.92 -19.78 17.12 -34.25 0 0 0 -0.06 9.92 -19.73 0 0 0 -0.06 26.99 -54.03 0.06 0 0 -0.06 9.86 -19.78 0 0 0 0 27.04 -54.03 0 0 0 -0.06 9.92 -19.78 0 0 0 0 17.12 -34.25 0 0 0 0 9.86 -19.78 0.06 0 0 0 1.5 -3.05 25.49 -51.04 0 0 0 0 9.92 -19.78 0 0 0 0 27.04 -54.09 0 0 0 0 9.86 -19.78 0 0 0 0 27.04 -54.09 0 0 0 0 27.04 -54.09 0 0 0 0 9.92 -19.78 0 0 0 0 27.04 -54.09 0 0 0 0 9.86 -19.78 0 0 0 0 27.04 -54.09 0 0 0 0 27.04 -54.03 0 0 0 -0.06 9.92 -19.78 0 0 0 0 27.04 -54.09 0 0 0 0 9.86 -19.78 0 0 0 0 27.04 -54.09 0 0 0 0 9.92 -19.78 0 0 27.04 -54.09 0 0 0 0 36.91 -73.87 0 0 0 0 27.04 -54.03 0 0 0 -0.06 9.92 -19.78 0 0 0 0 27.04 -54.03 0 0 0 -0.06 36.91 -73.81 0 0 0 0 36.96 -73.87 0 0 0 0 26.99 -54.09 0.06 0 0 0 36.91 -73.87 0 0 0 0 36.91 -73.87 0 0 0 0 36.96 -73.87 0 0 27.04 -54.09 0 0 0 0 36.91 -73.87 0 0 0 0 36.96 -73.87 0 0 0 0 63.95 -127.96 0 0 0 0 36.96 -73.87 0 0 0 0 100.91 -201.77 0 0 0 -0.06 714.26 -1428.52c126.63,253.31 253.25,506.61 379.88,759.92l9.86 19.78 0 0 0.06 0 9.86 19.78 0 0 0 0 9.86 19.78 0 0.06 0.06 0 9.86 19.73 0 0.06 0 0 9.92 19.73 0 0.06 0 0 7.2 14.46 0 0 0 0 2.66 5.26 0 0.06 0.06 0 7.2 14.46 0 0.06 0 0 2.66 5.26 0 0.06 0 0 7.2 14.46 0 0 0.06 0 2.6 5.26 0 0.06 0.06 0 7.2 14.46 0 0 0 0 2.66 5.26 0 0.06 0 0 7.26 14.46 0 0.06 0 0 2.6 5.21 0 0.11 0.06 0 7.2 14.41 0 0.06 0 0 2.66 5.21 0 0.11 0.06 0 7.2 14.41 0 0.06 0 0 2.6 5.21 0 0.11 0.06 0 4.54 9.14 0 0 0.06 0 2.6 5.26 0 0.06 0.06 0 2.6 5.26 0 0.11 0.06 0 4.54 9.09 0 0.06 0 0 2.66 5.26 0 0.06 0 0 2.6 5.21 0 0.11 0.06 0 4.6 9.09 0 0.06 0 0 2.6 5.26 0 0.06 0.06 0 2.6 5.21 0 0.11 0.06 0 4.54 9.14 0 0 0 0 2.66 5.26 0 0.06 0 0 2.6 5.21 0 0.17 0.06 0 4.6 9.09 0 0 0 0 2.6 5.26 0 0.11 0.06 0 2.6 5.15 0 0.17 0.06 0 4.54 9.09 0 0.06 0 0 2.66 5.21 0 0.11 0.06 0 2.55 5.21 0 0.11 0.11 0 4.54 9.09 0 0.06 0 0 2.6 5.21 0 0.11 0.06 0 2.6 5.21 0 0.11 0.06 0 1.94 3.82 0 0 2.6 5.26 0 0.06 0.06 0 2.6 5.26 0 0.11 0.06 0 2.55 5.15 0 0.17 0.11 0 1.88 3.77 0 0 0 0 2.66 5.32 0 0.06 0 0 2.6 5.21 0 0.11 0.06 0 2.6 5.15 0 0.17 0.06 0 1.94 3.77 0 0.06 0 0 2.6 5.26 0 0.06 0.06 0 2.6 5.21 0 0.11 0.06 0 2.55 5.15 0 0.17 0.11 0 1.88 3.82 0 0 0 0 2.66 5.26 0 0.06 0 0 2.6 5.21 0 0.11 0.06 0 2.6 5.15 0 0.22 0.06 0 1.94 3.77 0 0 0 0 2.6 5.26 0 0.11 0.06 0 2.6 5.15 0 0.17 0.06 0 2.55 5.15 0 0.17 0.11 0 1.88 3.77 0 0.06 0 0 2.66 5.21 0 0.11 0 0 2.6 5.21 0 0.11 0.11 0 2.55 5.15 0 0.17 0.11 0 1.88 3.77 0 0.06 0 0 2.6 5.21 0 0.11 0.06 0 2.6 5.21 0 0.11 0.06 0 2.55 5.15 0 0.22 0.11 0 1.88 3.77 0 0 0.06 0 2.6 5.26 0 0.11 0.06 0 2.55 5.15 0 0.17 0.11 0 4.54 9.09 0 0.06 0 0 2.6 5.21 0 0.11 0.06 0 2.6 5.15 0 0.17 0.06 0 1.94 3.82 0 0 0 0 2.6 5.26 0 0.06 0.06 0 2.6 5.21 0 0.11 0.06 0 2.55 5.15 0 0.17 0.11 0 1.88 3.82 0 0 0 0 2.66 5.26 0 0.06 0 0 2.6 5.21 0 0.11 0.06 0 2.6 5.21 0 0.17 0.06 0 1.94 3.77 0 0 0 0 2.6 5.26 0 0.11 0.06 0 2.6 5.21 0 0.11 0.06 0 2.55 5.15 0 0.17 0.11 0 1.88 3.77 0 0.06 0 0 2.66 5.26 0 0.06 0 0 2.6 5.21 0 0.11 0.06 0 2.6 5.15 0 0.17 0.11 0 1.88 3.82 0 0 0 0 2.6 5.26 0 0.06 0.06 0 2.6 5.21 0 0.11 0.06 0 2.55 5.15 0 0.22 0.11 0 1.88 3.77 0 0 0 0 2.66 5.26 0 0.06 0.06 0 2.55 5.21 0 0.17 0.11 0 2.55 5.15 0 0.17 0.11 0 1.88 3.77 0 0.06 0 0 2.6 5.21 0 0.11 0.06 0 2.6 5.15 0 0.17 0.06 0 2.6 5.15 0 0.17 0.06 0 1.88 3.77 0 0.06 0.06 0 2.6 5.21 0 0.11 0.06 0 2.55 5.21 0 0.11 0.11 0 2.55 5.15 0 0.17 0.11 0 1.88 3.77 0 0.06 0 0 2.6 5.26 0 0.06 0.06 0 2.6 5.21 0 0.17 0.06 0 2.6 5.1 0 0.22 0.06 0 1.88 3.77 0 0 0.06 0 2.6 5.26 0 0.11 0.06 0 2.55 5.15 0 0.17 0.11 0 2.55 5.1 0 0.22 0.11 0 1.88 3.77 0 0.06 0 0 2.6 5.21 0 0.11 0.06 0 2.6 5.15 0 0.17 0.06 0 1.94 3.82 0 0 0 0 0.66 1.33 0 0.17 0.06 0 1.88 3.77 0 0.06 0.06 0 2.6 5.21 0 0.11 0.06 0 2.6 5.21 0 0.11 0.06 0 1.88 3.82 0 0 0 0 0.66 1.33 0 0.22 0.11 0 1.88 3.71 0 0.06 0 0 2.6 5.26 0 0.11 0.06 0 2.6 5.15 0 0.17 0.06 0 1.94 3.77 0 0 0 0 0.66 1.33 0 0.22 0.11 0 1.83 3.77 0 0.06 0.06 0 2.6 5.21 0 0.11 0.06 0 2.6 5.15 0 0.17 0.06 0 1.88 3.82 0 0 0 0 0.66 1.27 0 0.22 0.11 0 1.88 3.77 0 0.06 0 0 2.6 5.21 0 0.11 0.06 0 2.6 5.15 0 0.17 0.11 0 1.88 3.82 0 0 0 0 0.66 1.33 0 0.22 0.11 0 1.83 3.71 0 0.06 0.06 0 2.6 5.21 0 0.11 0.06 0 2.6 5.21 0 0.17 0.06 0 1.88 3.77 0 0 0 0 0.66 1.33 0 0.22 0.11 0 1.88 3.71 0 0.11 0.06 0 2.6 5.21 0 0.11 0.06 0 2.55 5.15 0 0.17 0.11 0 1.88 3.77 0 0.06 0 0 0.66 1.27 0 0.22 0.11 0 1.83 3.77 0 0.06 0.06 0 2.6 5.21 0 0.11 0.06 0 2.6 5.15 0 0.17 0.06 0 1.88 3.82 0 0 0.06 0 0.61 1.27 0 0.28 0.11 0 1.88 3.71 0 0.06 0.06 0 2.6 5.21 0 0.11 0.06 0 2.55 5.15 0 0.22 0.11 0 1.88 3.77 0 0 0 0 0.66 1.33 0 0.22 0.11 0 1.83 3.71 0 0.11 0.06 0 2.6 5.15 0 0.17 0.06 0 2.6 5.15 0 0.17 0.06 0 1.88 3.77 0 0.06 0.06 0 0.61 1.27 0 0.22 0.11 0 1.88 3.71 0 0.11 0.06 0 2.6 5.21 0 0.11 0.06 0 2.55 5.15 0 0.17 0.11 0 1.88 3.77 0 0.06 0 0 0.66 1.27 0 0.22 0.11 0 1.88 3.77 0 0.06 0 0 2.6 5.21 0 0.11 0.06 0 2.6 5.15 0 0.22 0.06 0 1.88 3.77 0 0 0.06 0 0.61 1.27 0 0.28 0.11 0 1.88 3.71 0 0.06 0.06 0 2.6 5.21 0 0.17 0.06 0 2.55 5.1 0 0.22 0.11 0 1.88 3.77 0 0.06 0 0 0.66 1.27 0 0.22 0.11 0 1.88 3.71 0 0.11 0 0 2.6 5.15 0 0.17 0.06 0 2.6 5.15 0 0.17 0.06 0 1.88 3.77 0 0.06 0.06 0 0.61 1.27 0 0.22 0.17 0 1.83 3.71 0 0.11 0.06 0 2.6 5.21 0 0.11 0.06 0 2.55 5.15 0 0.17 0.11 0 1.88 3.77 0 0.06 0 0 0.66 1.27 0 0.28 0.11 0 1.88 3.71 0 0.06 0 0 2.6 5.21 0 0.17 0.06 0 2.6 5.1 0 0.22 0.11 0 1.83 3.77 0 0 0.06 0 0.61 1.33 0 0.22 0.17 0 1.83 3.71 0 0.11 0.06 0 2.6 5.15 0 0.17 0.06 0 2.55 5.15 0 0.17 0.11 0 1.88 3.77 0 0.06 0 0 0.66 1.27 0 0.22 0.11 0 1.88 3.71 0 0.11 0 0 2.6 5.15 0 0.17 0.11 0 2.55 5.15 0 0.17 0.11 0 1.88 3.77 0 0.06 0 0 0.61 1.27 0 0.28 0.17 0 1.83 3.71 0 0.06 0.06 0 2.6 5.21 0 0.11 0.06 0 2.55 5.15 0 0.22 0.11 0 1.88 3.77 0 0 0 0 0.66 1.27 0 0.28 0.11 0 1.88 3.71 0 0.11 0.06 0 2.55 5.15 0 0.17 0.11 0 2.55 5.1 0 0.22 0.11 0 1.88 3.77 0 0.06 0 0 0.61 1.27 0 0.22 0.17 0 1.83 3.71 0 0.11 0.06 0 2.6 5.15 0 0.17 0.06 0 2.55 5.15 0 0.17 0.11 0 1.88 3.77 0 0.06 0.06 0 0.61 1.27 0 0.22 0.11 0 1.88 3.71 0 0.11 0.06 0 2.55 5.21 0 0.11 0.11 0 1.88 3.82 0.66 1.33 0 0.22 0.11 0 1.88 3.71 0 0.06 0 0 0.66 1.27 0 0.28 0.11 0 1.83 3.71 0 0.06 0.06 0 2.6 5.21 0 0.17 0.06 0 2.55 5.1 0 0.22 0.11 0 1.88 3.77 0 0.06 0.06 0 0.61 1.27 0 0.22 0.11 0 1.88 3.71 0 0.11 0.06 0 2.55 5.15 0 0.17 0.11 0 1.88 3.82 0 0 0.66 1.27 0 0.22 0.11 0 1.88 3.77 0 0.06 0 0 0.66 1.27 0 0.22 0.11 0 1.83 3.71 0 0.11 0.06 0 2.6 5.21 0 0.11 0.06 0 1.94 3.82 0.61 1.33 0 0.17 0.11 0 1.88 3.77 0 0.06 0.06 0 0.61 1.27 0 0.28 0.11 0 1.88 3.71 0 0.06 0.06 0 2.55 5.21 0 0.17 0.11 0 1.88 3.77 0.66 1.33 0 0.22 0.11 0 1.88 3.77 0 0 0 0 2.6 5.26 0 0.11 0.06 0 2.6 5.15 0 0.17 0.06 0 1.94 3.82 0 0 0 0 0.66 1.27 0 0.22 0.06 0 1.88 3.77 0 0.06 0.06 0 2.6 5.21 0 0.11 0.06 0 2.55 5.15 0 0.17 0.11 0 1.88 3.82 0 0 0.66 1.33 0 0.17 0.11 0 1.88 3.77 0 0.06 0 0 2.6 5.21 0 0.11 0.06 0 2.6 5.21 0 0.11 0.06 0 2.6 5.15 0 0.22 0.06 0 1.88 3.71 0 0.06 0.06 0 2.6 5.26 0 0.11 0.06 0 2.55 5.15 0 0.17 0.11 0 1.88 3.77 0 0 0 0 0.66 1.33 0 0.22 0.11 0 1.88 3.77 0 0.06 0 0 2.6 5.21 0 0.11 0.06 0 2.6 5.15 0 0.17 0.06 0 1.94 3.82 0 0 0 0 0.66 1.33 0 0.17 0.06 0 1.88 3.77 0 0.06 0.06 0 2.6 5.21 0 0.11 0.06 0 2.55 5.21 0 0.11 0.11 0 2.55 5.15 0 0.22 0.11 0 1.88 3.71 0 0.06 0 0 2.6 5.26 0 0.11 0.06 0 2.6 5.15 0 0.17 0.06 0 1.94 3.77 0.66 1.33 0 0.22 0.06 0 1.88 3.77 0 0.06 0.06 0 2.6 5.21 0 0.11 0.06 0 2.6 5.15 0 0.17 0.06 0 2.55 5.15 0 0.17 0.11 0 1.88 3.77 0 0.06 0 0 2.6 5.21 0 0.11 0.06 0 2.6 5.21 0 0.11 0.06 0 2.6 5.15 0 0.22 0.06 0 1.88 3.71 0 0.06 0.06 0 2.6 5.26 0 0.06 0.06 0 2.6 5.21 0 0.17 0.06 0 2.55 5.1 0 0.22 0.11 0 1.88 3.77 0 0.06 0 0 2.66 5.21 0 0.11 0 0 2.6 5.15 0 0.17 0.06 0 2.6 5.15 0 0.17 0.06 0 1.88 3.77 0 0.06 0.06 0 2.6 5.21 0 0.11 0.06 0 2.6 5.21 0 0.11 0.06 0 2.55 5.15 0 0.17 0.11 0 1.88 3.77 0 0.06 0 0 2.66 5.26 0 0.06 0 0 2.6 5.21 0 0.17 0.06 0 2.6 5.1 0 0.22 0.11 0 1.83 3.77 0 0 0.06 0 2.6 5.26 0 0.11 0.06 0 2.6 5.15 0 0.17 0.06 0 2.55 5.15 0 0.17 0.11 0 1.88 3.77 0 0.06 0 0 2.66 5.21 0 0.11 0 0 2.6 5.21 0 0.11 0.06 0 2.6 5.15 0 0.17 0.11 0 1.83 3.77 0 0.06 0.06 0 2.6 5.26 0 0.06 0.06 0 2.6 5.21 0 0.11 0.06 0 2.55 5.15 0 0.22 0.11 0 1.88 3.77 0 0 0 0 2.66 5.26 0 0.11 0 0 2.6 5.15 0 0.17 0.06 0 2.6 5.15 0 0.17 0.11 0 1.88 3.77 0 0.06 0 0 2.6 5.21 0 0.11 0.06 0 2.6 5.21 0 0.11 0.06 0 2.55 5.15 0 0.17 0.11 0 1.88 3.77 0 0.06 0 0 2.66 5.26 0 0.06 0 0 2.6 5.21 0 0.11 0.06 0 2.6 5.15 0 0.22 0.11 0 1.88 3.77 0 0 0 0 2.6 5.26 0 0.06 0.06 0 2.6 5.21 0 0.17 0.06 0 2.55 5.15 0 0.17 0.11 0 1.88 3.77 0 0.06 0 0 2.66 5.21 0 0.11 0 0 2.6 5.21 0 0.11 0.06 0 2.6 5.15 0 0.17 0.11 0 1.88 3.77 0 0.06 0 0 2.6 5.26 0 0.06 0.06 0 2.6 5.21 0 0.11 0.06 0 2.55 5.15 0 0.17 0.11 0 1.88 3.82 0 0 0 0 2.66 5.26 0 0.06 0 0 2.6 5.21 0 0.17 0.06 0 2.6 5.15 0 0.17 0.11 0 1.88 3.77 0 0.06 0 0 2.6 5.21 0 0.11 0.06 0 2.6 5.21 0 0.11 0.06 0 2.55 5.15 0 0.17 0.11 0 1.88 3.77 0 0.06 0 0 2.66 5.26 0 0.06 0 0 2.6 5.21 0 0.11 0.06 0 2.6 5.15 0 0.17 0.06 0 1.94 3.82 0 0 0 0 2.6 5.26 0 0.06 0.06 0 2.6 5.21 0 0.11 0.06 0 2.6 5.21 0 0.17 0.06 0 1.88 3.77 0 0 0 0 2.66 5.32 0 0.06 0 0 2.6 5.21 0 0.11 0.06 0 2.6 5.15 0 0.17 0.06 0 1.94 3.82 0 0 0 0 2.6 5.26 0 0.06 0.06 0 2.6 5.21 0 0.11 0.06 0 2.6 5.21 0 0.11 0.06 0 1.88 3.82 2.66 5.26 0 0.06 0 0 2.6 5.26 0 0.06 0.06 0 2.6 5.21 0 0.17 0.06 0 4.54 9.09 0 0.06 0.06 0 2.6 5.21 0 0.11 0.06 0 2.6 5.15 0 0.17 0.06 0 4.54 9.09 0 0.06 0 0 2.6 5.21 0 0.11 0.06 0 2.6 5.21 0 0.11 0.06 0 4.54 9.09 0 0.06 0.06 0 2.6 5.26 0 0.06 0.06 0 2.6 5.21 0 0.17 0.06 0 4.54 9.09 0 0 0 0 2.66 5.26 0 0.11 0 0 2.6 5.15 0 0.17 0.06 0 4.54 9.09 0 0.06 0.06 0 2.6 5.21 0 0.11 0.06 0 2.6 5.21 0 0.11 0.06 0 4.54 9.14 0 0 0 0 2.66 5.26 0 0.06 0 0 2.6 5.21 0 0.11 0.06 0 4.54 9.14 0 0 0.06 0 2.6 5.26 0 0.11 0.06 0 2.6 5.21 0 0.11 0.06 0 4.54 9.09 0 0.06 0 0 2.66 5.26 0 0.06 0 0 7.26 14.46 0 0 0 0 2.6 5.26 0 0.06 0.06 0 7.2 14.46 0 0 0 0 2.66 5.26 0 0.06 0 0 7.26 14.46 0 0.06 0 0 2.6 5.26 0 0.06 0.06 0 9.86 19.73 0 0.06 0 0 9.86 19.78 0 0 0.06 0 9.86 19.78 0 0.06 0 0 9.86 19.73 0 0.06 0.06 0 9.86 19.78 0 0 0 0 9.86 19.78 0 0.06 0 0 9.92 19.78 0 0 0 0 9.86 19.78 0 0 0 0 9.92 19.78 0 0.06 0 0 104.18 208.64 0 0 0 0 9.92 19.78 0 0 0 0 9.86 19.78 0 0.06 0 0 12.52 25.05 0 0.06 0.06 0 9.86 19.78 0 0 0 0 9.86 19.78 0 0.06 0.06 0 2.6 5.26 0 0.06 0.06 0 7.2 14.46 0 0 0 0 2.66 5.26 0 0.06 0 0 7.26 14.46 0 0 0 0 2.6 5.26 0 0.06 0.06 0 7.2 14.52 0 0 0 0 2.66 5.26 0 0.06 0 0 2.6 5.21 0 0.11 0.06 0 7.2 14.41 0 0.06 0.06 0 2.6 5.26 0 0.06 0.06 0 7.2 14.46 0 0 0 0 2.6 5.26 0 0.11 0.06 0 7.2 14.41 0 0.06 0 0 2.66 5.26 0 0.06 0 0 2.6 5.21 0 0.11 0.06 0 4.6 9.14 0 0 0 0 2.6 5.26 0 0.06 0.06 0 2.6 5.21 0 0.11 0.06 0 4.54 9.14 0 0 2.66 5.32 0 0.06 0 0 2.6 5.21 0 0.11 0.06 0 7.2 14.41 0 0.06 0.06 0 2.6 5.21 0 0.11 0.06 0 2.6 5.21 0 0.11 0.06 0 4.54 9.14 0 0 0 0 2.6 5.26 0 0.06 0.06 0 2.6 5.21 0 0.17 0.06 0 4.54 9.09 0 0 0.06 0 2.6 5.26 0 0.11 0.06 0 2.6 5.21 0 0.11 0.06 0 4.54 9.14 0 0 0 0 2.66 5.26 0 0.06 0 0 2.6 5.21 0 0.11 0.06 0 2.6 5.21 0 0.11 0.06 0 1.88 3.82 0 0 0 0 2.66 5.26 0 0.06 0 0 2.66 5.26 0 0.06 0.06 0 2.55 5.21 0 0.17 0.11 0 4.54 9.09 0 0.06 0 0 2.6 5.21 0 0.11 0.06 0 2.6 5.21 0 0.11 0.06 0 4.54 9.09 0 0.06 0 0 2.66 5.26 0 0.06 0 0 2.6 5.21 0 0.11 0.06 0 2.6 5.15 0 0.17 0.06 0 1.94 3.82 0 0 0 0 2.6 5.26 0 0.06 0.06 0 2.6 5.26 0 0.11 0.06 0 2.55 5.15 0 0.17 0.11 0 1.88 3.77 0 0 0 0 2.66 5.32 0 0.06 0 0 2.6 5.21 0 0.11 0.06 0 2.6 5.15 0 0.17 0.06 0 4.54 9.09 0 0.06 0.06 0 2.6 5.26 0 0.06 0.06 0 2.55 5.21 0 0.11 0.11 0 2.55 5.15 0 0.22 0.11 0 1.88 3.77 0 0 0 0 2.6 5.26 0 0.06 0.06 0 2.6 5.21 0 0.17 0.06 0 2.6 5.15 0 0.17 0.06 0 1.88 3.77 0 0.06 0 0 2.66 5.26 0 0.06 0 0 2.6 5.21 0 0.11 0.11 0 2.55 5.15 0 0.17 0.11 0 1.88 3.82 0 0 0 0 2.6 5.26 0 0.06 0.06 0 2.6 5.21 0 0.11 0.06 0 2.6 5.21 0 0.11 0.06 0 2.55 5.15 0 0.22 0.11 0 1.88 3.77 0 0 0 0 2.66 5.26 0 0.11 0 0 2.6 5.15 0 0.17 0.06 0 2.6 5.15 0 0.17 0.06 0 1.88 3.77 0 0.06 0.06 0 2.6 5.21 0 0.11 0.06 0 2.6 5.21 0 0.11 0.06 0 2.55 5.15 0 0.17 0.11 0 1.88 3.82 0 0 0 0 0.66 1.33 0 0.17 0.11 0 1.88 3.77 0 0.06 0 0 2.6 5.21 0 0.11 0.06 0 2.6 5.21 0 0.17 0.06 0 1.94 3.77 0 0 0 0 0.61 1.33 0 0.22 0.11 0 1.88 3.77 0 0 0.06 0 2.6 5.26 0 0.11 0.06 0 2.55 5.15 0 0.17 0.11 0 2.55 5.15 0 0.17 0.11 0 1.88 3.77 0 0.06 0 0 2.6 5.21 0 0.11 0.06 0 2.6 5.21 0 0.11 0.06 0 2.55 5.15 0 0.17 0.11 0 1.88 3.82 0 0 0 0 0.66 1.27 0 0.28 0.11 0 1.88 3.71 0 0.06 0 0 2.6 5.21 0 0.17 0.06 0 2.6 5.15 0 0.17 0.06 0 1.94 3.77 0 0 0 0 0.66 1.33 0 0.22 0.06 0 1.88 3.77 0 0.06 0.06 0 2.6 5.21 0 0.11 0.06 0 2.55 5.15 0 0.17 0.11 0 1.88 3.82 0 0 0.66 1.33 0 0.17 0.11 0 1.88 3.77 0 0.06 0 0 2.6 5.21 0 0.11 0.06 0 2.6 5.21 0 0.11 0.06 0 2.6 5.15 0 0.22 0.06 0 1.88 3.77 0 0 0.06 0 0.61 1.27 0 0.28 0.11 0 1.88 3.71 0 0.06 0.06 0 2.55 5.21 0 0.17 0.11 0 2.55 5.15 0 0.17 0.11 0 1.88 3.77 0 0.06 0 0 0.66 1.27 0 0.22 0.11 0 1.83 3.71 0 0.11 0.06 0 2.6 5.21 0 0.11 0.06 0 2.6 5.15 0 0.17 0.06 0 1.88 3.82 0 0 0 0 0.66 1.33 0 0.17 0.11 0 1.88 3.77 0 0.06 0 0 2.66 5.21 0 0.11 0 0 2.6 5.21 0 0.11 0.11 0 2.55 5.15 0 0.22 0.11 0 1.83 3.77 0 0 0.06 0 0.61 1.27 0 0.28 0.17 0 1.83 3.71 0 0.11 0.06 0 2.6 5.15 0 0.17 0.06 0 2.55 5.15 0 0.17 0.11 0 1.88 3.77 0 0.06 0 0 0.66 1.27 0 0.22 0.11 0 1.88 3.71 0 0.11 0 0 2.6 5.21 0 0.11 0.06 0 2.6 5.15 0 0.17 0.06 0 1.94 3.82 0 0 0 0 0.61 1.33 0 0.17 0.11 0 1.88 3.77 0 0.06 0.06 0 2.6 5.21 0 0.11 0.06 0 2.55 5.21 0 0.17 0.11 0 1.88 3.77 0.66 1.33 0 0.22 0.11 0 1.88 3.77 0 0 0 0 0.66 1.27 0 0.28 0.11 0 1.83 3.71 0 0.11 0.06 0 2.6 5.15 0 0.17 0.06 0 2.55 5.15 0 0.17 0.11 0 1.88 3.77 0 0.06 0 0 0.66 1.27 0 0.22 0.11 0 1.88 3.77 0 0.06 0 0 2.6 5.21 0 0.11 0.06 0 2.6 5.15 0 0.17 0.11 0 1.88 3.82 0 0 0 0 0.66 1.33 0 0.22 0.11 0 1.83 3.71 0 0.06 0.06 0 2.6 5.21 0 0.11 0.06 0 2.55 5.21 0 0.17 0.11 0 1.88 3.77 0 0 0 0 0.66 1.33 0 0.22 0.11 0 1.88 3.77 0 0.06 0 0 0.66 1.27 0 0.22 0.11 0 1.83 3.71 0 0.11 0.06 0 2.6 5.15 0 0.17 0.06 0 2.6 5.15 0 0.17 0.06 0 1.88 3.77 0 0.06 0.06 0 0.61 1.27 0 0.22 0.11 0 1.88 3.77 0 0.06 0.06 0 2.6 5.21 0 0.11 0.06 0 2.55 5.15 0 0.17 0.11 0 1.88 3.82 0 0 0 0 0.66 1.33 0 0.22 0.11 0 1.83 3.71 0 0.06 0.06 0 2.6 5.26 0 0.11 0.06 0 2.6 5.15 0 0.17 0.06 0 1.88 3.77 0.66 1.33 0 0.22 0.11 0 1.88 3.77 0 0.06 0 0 0.66 1.27 0 0.22 0.11 0 1.88 3.71 0 0.11 0 0 2.6 5.21 0 0.11 0.06 0 2.6 5.15 0 0.17 0.06 0 1.88 3.77 0 0.06 0.06 0 0.61 1.27 0 0.22 0.17 0 1.83 3.77 0 0.06 0.06 0 2.6 5.21 0 0.11 0.06 0 2.55 5.15 0 0.22 0.11 0 1.88 3.77 0 0 0 0 0.66 1.33 0 0.22 0.11 0 1.88 3.71 0 0.06 0 0 2.6 5.26 0 0.11 0.06 0 2.6 5.15 0 0.17 0.06 0 1.94 3.82 0 0 0 0 0.61 1.27 0 0.22 0.11 0 1.88 3.77 0 0.06 0.06 0 0.61 1.27 0 0.22 0.11 0 1.88 3.71 0 0.11 0.06 0 2.55 5.21 0 0.11 0.11 0 2.55 5.15 0 0.17 0.11 0 1.88 3.77 0 0.06 0 0 0.66 1.27 0 0.28 0.11 0 1.83 3.71 0 0.06 0.06 0 2.6 5.21 0 0.11 0.06 0 2.55 5.21 0 0.17 0.11 0 1.88 3.77 0 0 0 0 0.66 1.33 0 0.22 0.11 0 1.88 3.71 0 0.11 0 0 0.66 1.22 0 0.28 0.11 0 1.83 3.71 0 0.11 0.06 0 2.6 5.15 0 0.17 0.06 0 1.94 3.82 0 0 0 0 0.66 1.27 0 0.22 0.06 0 1.88 3.77 0 0.06 0.06 0 0.61 1.27 0 0.22 0.11 0 1.88 3.71 0 0.11 0.06 0 2.55 5.21 0 0.11 0.11 0 2.55 5.15 0 0.17 0.11 0 1.88 3.82 0 0 0 0 0.66 1.27 0 0.28 0.11 0 1.83 3.71 0 0.06 0.06 0 2.6 5.21 0 0.17 0.06 0 2.6 5.15 0 0.17 0.06 0 1.88 3.77 0 0.06 0 0 0.66 1.27 0 0.22 0.11 0 1.88 3.77 0 0.06 0.06 0 0.61 1.22 0 0.28 0.11 0 1.88 3.71 0 0.11 0.06 0 2.55 5.15 0 0.17 0.11 0 1.88 3.82 0 0 0.66 1.33 0 0.17 0.11 0 1.83 3.77 0 0.06 0.06 0 0.61 1.27 0 0.22 0.17 0 1.83 3.71 0 0.11 0.06 0 2.6 5.21 0 0.11 0.06 0 2.55 5.15 0 0.22 0.11 0 1.88 3.77 0 0 0 0 0.66 1.33 0 0.22 0.11 0 1.88 3.71 0 0.06 0 0 2.6 5.21 0 0.17 0.06 0 2.6 5.15 0 0.17 0.06 0 1.88 3.77 0 0.06 0.06 0 0.61 1.27 0 0.22 0.11 0 1.88 3.77 0 0.06 0.06 0 0.61 1.27 0 0.22 0.11 0 1.88 3.71 0 0.11 0.06 0 2.55 5.15 0 0.17 0.11 0 2.55 5.15 0 0.17 0.11 0 1.88 3.77 0 0.06 0 0 0.66 1.27 0 0.28 0.11 0 1.83 3.71 0 0.06 0.06 0 2.6 5.21 0 0.17 0.06 0 2.55 5.1 0 0.22 0.11 0 1.88 3.77 0 0 0 0 0.66 1.33 0 0.22 0.11 0 1.88 3.71 0 0.11 0 0 2.6 5.21 0 0.11 0.06 0 2.6 5.15 0 0.17 0.06 0 1.94 3.77 0 0.06 0 0 0.66 1.27 0 0.22 0.06 0 1.88 3.77 0 0.06 0.06 0 0.61 1.27 0 0.22 0.11 0 1.88 3.71 0 0.11 0.06 0 2.55 5.21 0 0.11 0.11 0 2.55 5.15 0 0.22 0.11 0 1.88 3.71 0 0.06 0 0 0.66 1.27 0 0.28 0.11 0 1.83 3.71 0 0.06 0.06 0 2.6 5.21 0 0.17 0.06 0 2.6 5.15 0 0.17 0.06 0 1.88 3.77 0 0.06 0.06 0 0.61 1.27 0 0.22 0.11 0 1.88 3.77 0 0.06 0.06 0 2.6 5.21 0 0.11 0.06 0 2.55 5.15 0 0.17 0.11 0 1.88 3.82 0 0 0.66 1.33 0 0.17 0.11 0 1.83 3.77 0 0.06 0.06 0 0.61 1.27 0 0.28 0.17 0 1.83 3.71 0 0.06 0.06 0 2.6 5.21 0 0.11 0.06 0 2.55 5.15 0 0.22 0.11 0 1.88 3.77 0 0 0 0 0.66 1.33 0 0.22 0.11 0 1.88 3.71 0 0.11 0 0 2.6 5.21 0 0.11 0.06 0 2.6 5.15 0 0.17 0.06 0 1.88 3.77 0 0.06 0.06 0 0.61 1.27 0 0.22 0.11 0 1.88 3.77 0 0.06 0.06 0 2.6 5.21 0 0.11 0.06 0 2.55 5.15 0 0.17 0.11 0 2.55 5.15 0 0.17 0.11 0 1.88 3.77 0 0.06 0 0 0.66 1.27 0 0.28 0.11 0 1.83 3.71 0 0.06 0.06 0 2.6 5.21 0 0.17 0.06 0 2.55 5.15 0 0.17 0.11 0 1.88 3.77 0 0 0 0 0.66 1.33 0 0.22 0.11 0 1.88 3.71 0 0.11 0 0 2.6 5.21 0 0.11 0.06 0 2.6 5.15 0 0.17 0.06 0 1.94 3.82 0 0 0 0 0.66 1.33 0 0.17 0.06 0 1.88 3.77 0 0.06 0.06 0 2.6 5.21 0 0.11 0.06 0 2.55 5.21 0 0.11 0.11 0 2.55 5.15 0 0.22 0.11 0 1.88 3.77 0 0 0 0 0.66 1.33 0 0.22 0.11 0 1.83 3.71 0 0.06 0.06 0 2.6 5.21 0 0.17 0.06 0 2.6 5.15 0 0.17 0.06 0 1.88 3.77 0 0.06 0 0 0.66 1.27 0 0.22 0.11 0 1.88 3.77 0 0.06 0 0 2.6 5.21 0 0.11 0.06 0 2.6 5.15 0 0.17 0.06 0 2.6 5.15 0 0.17 0.06 0 1.88 3.77 0 0.06 0.06 0 2.6 5.26 0 0.06 0.06 0 2.6 5.21 0 0.11 0.06 0 2.55 5.21 0 0.17 0.11 0 1.88 3.77 0 0 0 0 0.66 1.33 0 0.22 0.11 0 1.88 3.71 0 0.11 0 0 2.6 5.21 0 0.11 0.06 0 2.6 5.15 0 0.17 0.06 0 2.55 5.1 0 0.22 0.11 0 1.88 3.77 0 0.06 0 0 2.66 5.21 0 0.11 0 0 2.6 5.21 0 0.11 0.11 0 2.55 5.15 0 0.17 0.11 0 1.88 3.82 0 0 0 0 0.61 1.33 0 0.22 0.17 0 1.83 3.71 0 0.06 0.06 0 2.6 5.21 0 0.17 0.06 0 2.55 5.15 0 0.17 0.11 0 1.88 3.77 0 0 0 0 0.66 1.33 0 0.22 0.11 0 1.88 3.77 0 0.06 0 0 2.6 5.21 0 0.11 0.06 0 2.6 5.15 0 0.17 0.06 0 2.6 5.15 0 0.17 0.06 0 1.88 3.77 0 0.06 0.06 0 2.6 5.26 0 0.06 0.06 0 2.55 5.21 0 0.11 0.11 0 2.55 5.15 0 0.22 0.11 0 1.88 3.77 0 0 0 0 0.66 1.33 0 0.22 0.11 0 1.83 3.71 0 0.11 0.06 0 2.6 5.21 0 0.11 0.06 0 2.6 5.15 0 0.17 0.06 0 2.55 5.15 0 0.17 0.11 0 1.88 3.77 0 0.06 0 0 2.6 5.21 0 0.11 0.06 0 2.6 5.21 0 0.11 0.06 0 2.6 5.15 0 0.17 0.06 0 1.88 3.82 0 0 0.06 0 2.6 5.26 0 0.06 0.06 0 2.6 5.21 0 0.17 0.06 0 2.55 5.15 0 0.17 0.11 0 2.55 5.1 0 0.22 0.11 0 1.88 3.77 0 0.06 0 0 2.6 5.21 0 0.11 0.06 0 2.6 5.21 0 0.11 0.06 0 2.55 5.15 0 0.17 0.11 0 1.88 3.77 0 0.06 0 0 2.66 5.26 0 0.06 0 0 2.6 5.21 0 0.11 0.06 0 2.6 5.21 0 0.11 0.06 0 1.94 3.82 0 0 0 0 2.6 5.32 0 0 0.06 0 2.6 5.26 0 0.11 0.06 0 2.55 5.15 0 0.17 0.11 0 2.55 5.15 0 0.17 0.11 0 1.88 3.77 0 0.06 0 0 2.6 5.26 0 0.06 0.06 0 2.6 5.21 0 0.11 0.06 0 2.55 5.15 0 0.17 0.11 0 1.88 3.82 0 0 0 0 2.66 5.26 0 0.06 0 0 2.6 5.26 0 0.06 0.06 0 2.6 5.21 0 0.17 0.06 0 4.54 9.09 0 0.06 0.06 0 2.6 5.21 0 0.11 0.06 0 2.6 5.21 0 0.11 0.06 0 2.55 5.15 0 0.17 0.11 0 1.88 3.82 0 0 0 0 2.6 5.26 0 0.06 0.06 0 2.6 5.21 0 0.11 0.06 0 2.6 5.21 0 0.11 0.06 0 4.54 9.14 0 0 0 0 2.66 5.26 0 0.11 0 0 2.6 5.21 0 0.11 0.06 0 4.54 9.09 0 0.06 0.06 0 2.6 5.26 0 0.06 0.06 0 2.6 5.21 0 0.11 0.06 0 2.55 5.21 0 0.11 0.11 0 4.54 9.14 0 0 0 0 2.6 5.26 0 0.06 0.06 0 2.6 5.21 0 0.17 0.06 0 4.54 9.09 0 0 0 0 2.66 5.32 0 0.06 0 0 2.6 5.21 0 0.11 0.06 0 7.2 14.41 0 0.06 0.06 0 2.6 5.26 0 0.06 0.06 0 2.55 5.21 0 0.11 0.11 0 4.54 9.14 0 0 0 0 2.6 5.26 0 0.06 0.06 0 2.6 5.26 0 0.11 0.06 0 7.2 14.41 0 0.06 0 0 2.6 5.21 0 0.11 0.06 0 7.2 14.46 0 0 0.06 0 2.6 5.26 0 0.06 0.06 0 2.6 5.26 0 0.06 0.06 0 7.2 14.46 0 0.06 0 0 2.6 5.21 0 0.11 0.06 0 7.2 14.46 0 0 0 0 2.66 5.26 0 0.06 0 0 2.6 5.21 0 0.11 0.06 0 7.2 14.46 0 0 0 0 2.66 5.26 0 0.11 0 0 7.26 14.46 0 0 0 0 2.6 5.26 0 0.06 0.06 0 9.86 19.78 0 0 0 0 2.6 5.26 0 0.06 0.06 0 7.2 14.46 0 0 0 0 2.66 5.32 0 0.06 0 0 9.86 19.73 0 0.06 0.06 0 9.86 19.78 0 0 0 0 2.66 5.32 0 0.06 0 0 9.86 19.73 0 0.06 0 0 9.92 19.78 12.52 25.1 0 0.06 0 0 337.26 675.91c-303.13,-356.33 -707.83,-592.62 -1155.76,-652.3l0 0 -0.06 0c-4.88,-0.66 -9.7,-1.33 -14.57,-1.94 -1.05,-0.11 -2.11,-0.22 -3.16,-0.33l0 -0.06 -0.22 0c-2.11,-0.22 -4.27,-0.44 -6.37,-0.72l0 0 -0.28 0c-1.88,-0.22 -3.77,-0.44 -5.65,-0.66l0 -0.11 -1.05 0c-2.05,-0.22 -4.16,-0.5 -6.21,-0.72l0 -0.06 -0.5 0c-725.34,-79.91 -1424.08,319.09 -1811.22,1022.76l0 0 0 0.06 -1.27 2.27 -0.06 0 0 0.11 -1.16 2.16 -0.17 0 0 0.28 -1.94 3.55 0 0 0 0.06 -1.22 2.22 -0.11 0 0 0.17c-0.66,1.22 -1.33,2.44 -1.99,3.6l0 0 0 0.06c-1.39,2.49 -2.77,5.04 -4.16,7.59l-60.46 121.03 -14.52 28.98 0 0 0 0 -36.96 73.87 0 0 -100.86 201.83 0 0 0 0 -100.91 201.83 0 0 0 0 -137.88 275.64 -100.91 201.83 0 0 0 0 -36.91 73.87 0 0 -100.91 201.83 0 0 0 0 -100.91 201.83 0 0 0 0 -137.82 275.7 -100.91 201.77 0 0 0 0 -137.88 275.7 0 0 -100.86 201.83 0 0 0 0 -137.88 275.7 -100.91 201.77 0 0 0 0 -137.82 275.7 0 0 -100.91 201.83 0 0 0 0 -238.73 477.52 -137.88 275.64 0 0 -100.91 201.83 0 0 0 0 -137.82 275.7 0 0 0 0 -100.91 201.83 0 0 0 0 -238.73 477.47 0 0 -137.88 275.7 0 0 -100.86 201.83 0 0 0 0 -238.79 477.47 0 0 -238.73 477.52 0 0 0 0 -238.73 477.47 -854.07 1708.2 -477.52 954.99 -182.6 365.25 -3335.5 0 41.73 -83.46z"/>
 </g>
</svg>
